<?xml version="1.0" encoding="utf-8"?>
<!-- Generator: Adobe Illustrator 25.4.1, SVG Export Plug-In . SVG Version: 6.00 Build 0)  -->
<svg version="1.1" id="Capa_1" xmlns="http://www.w3.org/2000/svg" xmlns:xlink="http://www.w3.org/1999/xlink" x="0px" y="0px"
	 viewBox="0 0 2514.76 1235.86" style="enable-background:new 0 0 2514.76 1235.86;" xml:space="preserve">
<style type="text/css">
	.st0{fill:#FFFFFF;}
	.st1{fill:none;stroke:#000000;stroke-width:15.9177;stroke-miterlimit:10;}
</style>
<g>
	<path d="M-1561.9,444.02l-655.46,456.16c-45.16-64.68-71.65-143.36-71.65-228.25c0-220.5,178.75-399.23,399.25-399.23
		C-1753.98,272.69-1634.03,340.47-1561.9,444.02z"/>
	<path class="st0" d="M-1722.21,549.27c-2.57,2.45-5.04,5-9.37,4.89c-12.19-0.3-24.4-0.1-36.61-0.1c-11.64,0-23.3-0.07-34.94,0.05
		c-3.02,0.03-5.67-0.58-8.26-2.08c-1.72-1.02-3.82-2.03-3.29-4.17c0.47-1.93,1.7-3.67,3.92-4.75c3.49-1.7,7-2.12,10.77-2.05
		c6.52,0.13,13.04,0.33,19.55-0.05c5.02-0.3,9.82,1.55,14.76,1.13c6.72-0.6,13.43-0.95,20.16-1.17c7.24-0.22,14.11,1.87,21.2,2.4
		C-1722.01,543.53-1720.47,547.6-1722.21,549.27z"/>
	<path d="M-1416.85,921.54c-1.93,6.59-6.6,11.24-11.66,15.41c-4.55,3.77-9.16,7.89-14.44,10.22c-5.75,2.52-11.11,6-17.5,7.51
		c-2.85,0.67-6.44,0.95-8.96,3.25c-0.2,0.18-0.48,0.48-0.67,0.45c-4.8-0.88-8.84,2.1-13.43,2.67c-9.29,1.13-18.48,2.7-27.89,1.92
		c-3.34,0-6.67-0.1-9.99,0.02c-8.29,0.25-16.08-2.43-24.1-3.74c-4.2-0.7-8.34-1.77-12.22-3.04c-5.5-1.82-11.27-2.95-16.53-5.45
		c-8.07-3.85-16.46-7.02-24.27-11.47c-7.67-4.39-15.26-8.97-23.25-12.71c-6.17-2.89-12.24-5.95-18.4-8.86
		c-4.32-2.03-8.41-4.87-12.93-6.12c-2.74-0.77-5.59-1.87-7.77-3.05c-3.29-1.78-6.85-1.85-10.14-3.07c-4.05-1.48-8.57-2.8-12.98-2.95
		c-10.47-0.38-21.05-0.88-31.44,0.2c-5.09,0.53-10.54,1.33-15.66,3.49c-3.3,1.37-7.35,1.72-11.06,2.45c-3.94,0.8-7.3,2.79-11.04,3.8
		c-4.67,1.28-9.07,3.09-13.49,5.02c-4.7,2.07-9.57,3.62-14.23,5.99c-6.2,3.17-12.73,5.8-18.86,9.16
		c-8.82,4.82-17.8,9.31-26.45,14.46c-3.92,2.33-8.89,3.52-13.29,5.29c-4.65,1.85-9.72,1.03-14.08,3.4
		c-1.32,0.72-2.65,0.68-4.04,0.68c-13.04,0-26.1-0.18-39.14,0.13c-3,0.08-4.84-1.9-7.34-2.6c-5.12-1.43-10.34-2.92-15.29-5.47
		c-5.3-2.72-10.84-5.35-16.56-7.47c-4.09-1.5-7.92-4.12-11.87-6.2c-4.52-2.38-8.96-4.94-13.31-7.64
		c-9.76-6.04-19.73-11.79-29.64-17.53c-6.19-3.59-12.44-7.84-19.73-9.49c-1.62-0.38-2.64-1.75-4.35-2.35
		c-16.86-6.05-34.27-6.84-51.9-6.29c-6.7,0.2-13.11,1.5-19.26,4.09c-0.78,0.33-1.68,0.55-2.32-0.15c-0.75-0.83,0.1-1.47,0.45-2.18
		c1.2-2.48,3.34-4.3,5.34-5.77c6.27-4.62,12.54-9.49,19.53-12.69c3.37-1.55,7.89-3.2,12.63-1.07c3.84,1.72,8.49,0.53,12.81,2.33
		c3.84,1.6,7.92,3.34,11.97,4.12c6.92,1.33,12.93,4.82,19.43,7.05c5.95,2.05,11.64,4.9,17.43,7.46c4.1,1.8,8.41,3.29,12.17,5.62
		c4.77,2.97,10.02,4.92,14.79,7.92c5.59,3.49,11.69,6.14,17.5,9.31c4.19,2.28,8.07,5.2,12.42,7.12c3.89,1.72,6.85,4.97,11.24,5.94
		c3.14,0.7,5.14,3.72,8.66,4.69c4.42,1.22,8.91,2.75,13.21,4.29c6.62,2.35,13.59,0.78,19.96,3.4c2.52,1.03,5.07,0.65,7.59-0.47
		c2.55-1.13,5.32-1.73,8.07-1.2c5.77,1.13,11.21-1.38,16.36-2.65c5.79-1.45,11.74-4.09,17.19-7.42c3.27-1.98,6.99-3.74,10.72-5.2
		c3.72-1.45,7.15-3.65,10.59-5.74c1.07-0.65,2.17-0.33,3.14-0.75c6.65-2.94,12.83-6.82,19.66-9.46c8.01-3.07,15.41-7.42,23.58-10.29
		c4.8-1.68,9.72-3.84,14.54-5.44c3.52-1.15,7.52-2.05,11.24-3.04c6.45-1.72,13.13-1.72,19.48-3.55c1.38-0.38,2.67-0.58,4.04-0.58
		c6.8-0.03,13.66,0.5,20.4-0.15c8.27-0.78,16.19,1.25,24.03,2.74c4.67,0.88,10.01,2.17,14.19,5.7c1.5,1.27,4.2,1.1,6.39,2.12
		c10.79,5.02,21.61,9.91,32.34,15.09c10.91,5.27,21.38,11.24,32.04,16.96c6.74,3.64,13.73,6.95,20.83,10.04
		c7.19,3.1,14.48,5.74,21.9,7.97c10.81,3.27,22.06,2.23,33.17,2.32c7.92,0.07,15.41-2.08,23.02-3.97c5.5-1.38,11.16-2.62,16.16-4.97
		c6.52-3.07,13.36-5.45,19.5-9.67c7-4.8,13.78-10.31,21.78-13.41c2.67-1.03,6.07-0.62,9.06-0.22
		C-1415.59,918.07-1416.47,920.17-1416.85,921.54z"/>
	<path d="M-1419.02,882.11c-2.53,3.6-4.34,7.86-8.49,10.32c-7.56,4.52-14.51,10.19-22.42,13.86c-5.54,2.57-11.31,5.09-17.01,7.4
		c-5.22,2.12-10.64,4.57-15.88,5.52c-6.75,1.23-13.49,4-20.68,2.72c-2.57-0.45-5.27-0.07-7.91-0.07c-9.87,1.52-19.6-0.48-29.04-2.5
		c-7.42-1.58-14.71-4.39-21.81-7.72c-8.11-3.79-15.79-8.41-24.15-11.79c-6.85-2.77-13.34-6.8-20.3-9.51
		c-7.27-2.82-14.03-6.7-21.01-10.02c-7.84-3.74-16.13-6.6-23.63-10.81c-5.9-3.29-12.22-5.65-18.35-7.62
		c-4.44-1.45-9.51-3.34-14.74-2.84c-4.9,0.47-10.14-1.57-14.61-0.63c-6.9,1.43-14.16-1.3-20.68,2.32c-0.68,0.38-1.58,0.5-2.38,0.52
		c-7.07,0-13.23,3.45-19.78,5.35c-5.25,1.53-10.59,3.19-15.39,5.7c-4.09,2.13-8.46,3.7-12.58,5.49c-3.79,1.63-7.49,3.72-11.44,5.04
		c-5.82,1.92-10.94,5.4-16.68,7.47c-4.8,1.72-9.09,4.62-14.18,5.74c-2.5,0.55-4.85,2.02-7.12,3.34c-2.3,1.37-4.97,1.45-7.42,2.67
		c-6.09,3.04-12.91,4.92-19.43,6.24c-5.14,1.05-10.26,3.75-15.88,2.79c-5.25-0.88-10.37,0.9-15.59,1.13
		c-8.06,0.37-16.08-0.32-23.9-1.47c-5.79-0.83-11.64-2.74-17.23-5.27c-3.97-1.8-8.04-3.65-11.89-5.59
		c-5.37-2.7-10.67-5.69-15.96-8.62c-5.49-3.04-10.84-6.27-16.31-9.31c-6.79-3.75-13.58-7.45-20.45-11.02
		c-9.01-4.69-18-9.46-27.2-13.73c-3.94-1.82-8.31-2.79-12.39-4.39c-2.05-0.82-2.22-2.67-3.6-3.67c1.08-0.93,1.67-2.3,2.97-3.1
		c2.82-1.75,5.54-3.67,8.21-5.64c3.4-2.5,5.19,1.38,7.66,2.12c6.37,1.9,12.04,5.64,18.26,8.12c6.12,2.43,11.77,6.02,17.65,9.09
		c6.47,3.37,12.98,6.7,19.41,10.14c4.44,2.35,8.62,5.24,13.21,7.19c6.7,2.85,12.51,7.24,19.01,10.46c4.89,2.4,9.76,4.8,14.73,7.04
		c2.22,1.02,4.54,0.92,6.74,1.47c12.24,3.09,24.68,1.72,37.04,2c5.25,0.12,10.94-0.92,15.18-2.67c7.2-2.99,14.54-6.24,21.63-9.69
		c8.97-4.37,17.65-9.49,27.08-12.96c7.92-2.92,15.04-7.69,22.73-10.91c6-2.52,12.21-5.02,18.33-7.4c5.65-2.22,11.56-3.47,17.23-5.57
		c3.9-1.45,8.54-2,12.78-2.43c10.06-1,20.01-3.77,30.29-2.5c2.74,0.33,5.55,0.17,8.32,0.03c8.14-0.38,15.69,1.9,23.5,3.95
		c6.72,1.78,12.63,5.27,19.23,7.19c3.47,1,6.89,3.12,10.32,4.72c4.34,2.03,8.81,3.82,13.16,5.82c3.27,1.5,6.65,2.99,9.64,4.8
		c3.92,2.37,8.22,3.74,12.14,5.95c10.14,5.77,20.73,10.69,30.84,16.53c5.9,3.42,12.29,5.82,19,7.74c4.1,1.18,8.74,0.67,12.44,3.29
		c0.53,0.37,1.3,0.63,1.93,0.58c10.66-0.82,20.98,2.79,31.62,2.27c7.54-0.37,15.13-1.23,22.38-2.65c6.22-1.22,12.33-4.5,18.33-7.42
		c9.89-4.8,17.53-12.73,27.35-17.29c4.04-1.87,8.17-3.55,12.37-4.97c1.42-0.48,3.85-0.93,4.65,0.48
		C-1417.95,877.08-1417.8,880.39-1419.02,882.11z"/>
	<path d="M-1420.92,843.19c-0.22,3.92-4.14,4.59-6.4,6.5c-9.61,8.16-20.3,14.68-32.02,19.33c-5.74,2.27-11.56,4.2-17.66,5.7
		c-9.46,2.3-18.73,4.45-28.5,3.87c-2.08,0-4.17-0.02-6.25,0c-7.56,0.12-14.76-1.8-21.91-3.95c-0.4-0.13-0.85-0.38-1.2-0.28
		c-5.05,1.47-9.31-2-13.99-2.72c-3-0.47-6.99-0.67-10.01-3.32c-1.67-1.47-4.8-1.37-7.27-2.15c-10.22-3.24-19.61-8.29-29.35-12.56
		c-8.87-3.9-17.21-8.82-25.78-13.29c-9.89-5.14-19.31-11.31-29.67-15.36c-5.1-2-10.54-3.72-15.98-5.15
		c-4.02-1.05-8.24-0.65-11.82-2.02c-10.64-4.02-21.51-1.77-32.14-1.48c-5.75,0.17-12.11,0.88-17.93,3.44
		c-3.02,1.32-6.75,1.05-10.12,2.45c-5.19,2.15-10.69,3.29-15.76,6.07c-5.35,2.94-11.44,4.5-17.16,6.75
		c-5.89,2.3-11.79,4.59-17.6,7.1c-5.69,2.49-11.29,5.15-16.86,7.91c-6.59,3.24-13.23,6.4-19.58,10.06
		c-2.75,1.58-5.82,2.08-8.62,3.09c-12.11,4.3-24.87,5.74-37.71,5.6c-7.29-0.07-14.88,0.1-21.76-1.43
		c-7.54-1.67-15.28-3.04-22.82-5.25c-9.01-2.65-17.7-6.05-26.23-9.67c-7.39-3.14-14.61-6.97-21.25-11.71
		c-2.77-1.97-6-3.34-8.59-5.49c-3.79-3.17-8.76-4.79-11.76-8.92c-2.64-3.62-1.28-6.2,2.54-8.44c5.75-3.34,9.89-1.52,14.53,2.15
		c3.85,3.04,8.42,5.19,12.74,7.62c7.99,4.54,15.89,9.21,24.05,13.41c5.45,2.8,11.24,4.95,16.91,7.3c6.24,2.57,13.04,3.04,19.36,4.75
		c10.66,2.9,21.18,1.73,31.55,1.2c5.19-0.28,11.02-1.45,16.51-3.24c4.9-1.58,10.17-2.89,14.66-5.17c6.4-3.25,13.36-5.35,19.35-9.62
		c2.85-2.03,6.24-3.95,9.64-5.07c4.02-1.32,7.27-3.85,11.06-5.44c5.92-2.52,11.57-5.59,17.58-8.01c6.02-2.43,12.07-4.8,18.2-6.95
		c4.19-1.48,9.14-2.1,12.63-4.07c4.55-2.55,9.54-0.2,13.88-3.45c2.55-1.92,7.12-0.47,10.84-1.33c11.57-2.74,23.43-0.57,35.14-1.27
		c7.94-0.48,15.23,2.15,22.8,3.87c8.16,1.85,15.41,5.42,22.3,9.47c7.37,4.32,14.99,8.32,22.55,12.06
		c9.46,4.65,18.96,9.37,28.52,13.91c6.65,3.17,13.23,7.02,19.95,9.72c6.07,2.43,11.99,5.8,18.51,7.1c1.95,0.4,3.17,1.53,4.69,2.33
		c3.5,1.83,7.59,1.23,10.94,2.4c10.24,3.55,20.6,1.8,30.82,1.65c6.42-0.08,12.98-1.88,19.41-3.47c3.6-0.88,7.32-1.98,10.81-3.05
		c5.87-1.77,11.64-4.17,17.13-7.1c7.87-4.22,15.29-9.06,22.5-14.28c2.64-1.9,5.85-2.2,8.82-3.12c1.67-0.52,2.97,0.07,2.9,2.27
		C-1420.96,837.37-1420.76,840.28-1420.92,843.19z"/>
	<path d="M-1416.75,788.28c-3.6,7.84-8.22,15.18-15.21,20.21c-7.14,5.15-14.09,10.64-22.45,14.19c-5.65,2.4-11.07,4.85-17.09,6.45
		c-5.9,1.58-11.66,3.29-17.76,4.27c-4.27,0.68-8.36,2.48-11.92,1.9c-4.64,0.05-8.29,0.47-11.99,0.88
		c-6.54,0.75-13.21-0.63-19.71-1.3c-3.32-0.35-7.29-1.45-10.79-2.9c-3.47-1.45-7.51-1.67-10.84-3.34
		c-4.39-2.18-9.11-3.45-13.48-5.67c-7.81-3.99-15.93-7.34-23.57-11.59c-10.52-5.85-21.41-10.96-32.05-16.56
		c-6.8-3.59-13.69-7.32-21.28-9.59c-3.92-1.17-7.79-2.85-11.67-4.29c-4.6-1.73-9.44-2.65-13.91-4.35
		c-8.99-3.4-18.31-3.85-27.57-5.07c-8.96-1.2-17.61,1.35-26.4,2.67c-6.15,0.92-11.59,3.52-17.43,5.04
		c-4.52,1.18-8.72,3.6-13.09,5.39c-4,1.63-7.99,3.24-11.87,5.15c-5.35,2.64-11.01,4.69-16.48,7.09
		c-7.72,3.39-15.36,6.97-23.12,10.26c-6.1,2.6-12.09,5.54-18.23,7.94c-7.84,3.09-15.41,6.8-23.35,9.72
		c-6.75,2.5-13.33,1.6-19.98,1.85c-7.07,0.27-14.21-0.5-21.21,0.23c-6.57,0.67-12.83-1.08-18.56-2.8
		c-10.87-3.24-21.71-7.29-31.34-13.79c-4.07-2.75-8.41-5.14-12.78-7.35c-2.59-1.32-1.82-4.44-1.2-4.67c3.45-1.37,4.95-5.1,8.59-6.3
		c4.92-1.62,8.21,1.42,12.04,3.2c7.66,3.55,15.08,7.49,23.17,10.26c6.2,2.13,12.73,3.12,18.8,5.59c0.98,0.4,2.18,0.6,3.24,0.47
		c5.47-0.63,10.94,1.8,16.23,0.65c5.92-1.3,11.87-0.15,17.98-2.17c6.55-2.17,12.53-5.7,19.31-7.32c3.54-0.85,6.92-3.22,10.29-4.99
		c2.4-1.25,5.02-1.78,7.42-3.1c6-3.27,12.73-5,18.8-8.41c5.39-3.04,11.71-4.35,17.21-7.19c4.89-2.54,10.06-4.39,14.93-6.89
		c6.72-3.47,13.83-5.95,20.93-8.52c4.17-1.5,8.64-2.25,12.71-3.32c5.19-1.35,10.84-2.79,16.49-2.75c6.52,0.03,13.06,0.15,19.58-0.03
		c9.79-0.27,19.11,2.2,28.64,3.89c6.1,1.1,11.72,3.3,17.45,5.12c5.3,1.67,10.57,4.05,15.53,6.92c3.85,2.23,8.27,3.52,12.06,5.85
		c3.59,2.23,7.46,4.19,11.16,5.84c4.9,2.18,9.79,4.39,14.44,7.02c6.52,3.69,13.33,6.82,20,10.17c5,2.52,9.84,5.52,15.29,7.42
		c4.25,1.48,8.34,3.77,12.81,4.85c5.2,1.28,10.42,2.6,15.68,3.72c13.18,2.85,26.4,2.15,39.56,1.7c6.99-0.23,13.86-2.5,20.61-5.49
		c5.04-2.22,9.67-5.14,14.69-7.32c3.37-1.47,6.29-3.85,9.22-6.15c6.55-5.1,13.13-10.26,20.1-14.76c2.3-1.5,5.69-1.5,8.51-2.62
		C-1417.94,782.9-1415.84,786.31-1416.75,788.28z"/>
	<path d="M-1419.97,747.02c-0.73,7.67-5.42,12.79-11.22,17.13c-4.49,3.35-8.72,7.25-13.68,9.69c-5.1,2.5-9.64,5.9-15.28,7.77
		c-4.97,1.67-10.24,3.07-15.08,5.5c-3,1.5-6.82,2-10.06,2.42c-9.34,1.23-18.6,4.37-28.22,2.52c-2.92,0-5.89-0.35-8.74,0.08
		c-7.02,1.07-13.69-1.58-20.2-2.85c-6.6-1.27-13.43-4.2-19.86-7.42c-5-2.49-10.12-5.17-15.28-7.51c-4.99-2.27-10.01-4.94-14.86-7.72
		c-4.84-2.79-10.37-4.55-15.51-6.99c-6.44-3.05-12.66-6.44-19.36-9.01c-3.47-1.33-6.97-4.07-10.42-5.32
		c-5.8-2.08-10.61-6.2-16.76-7.45c-2.99-0.6-5.82-2.12-8.61-3.49c-2.79-1.38-6.3-2.12-8.76-2.32c-5.22-0.43-9.82-3.04-15.16-2.85
		c-11.11,0.4-22.25,0.55-33.32-0.05c-5.85-0.32-11.26,1.55-16.49,2.84c-4.57,1.12-9.46,3.15-14.01,5.52
		c-6.09,3.17-12.53,5.84-18.58,9.14c-6.64,3.64-13.54,6.8-20.28,10.17c-5.42,2.72-11.16,5.29-16.96,7.45
		c-4.34,1.62-8.84,3.75-13.18,5.52c-4.62,1.88-9.49,3.69-14.41,5.12c-3.85,1.13-8.34,0.78-11.59,3.85
		c-0.17,0.17-0.53,0.25-0.77,0.22c-6.02-0.95-11.29,3.32-17.41,2.32c-5.24-0.85-10.09,3.22-15.34,2.05
		c-7.82-1.73-15.98-1.25-23.68-3.9c-2.9-0.98-6.05-1.1-9.07-2.27c-3.82-1.47-2.79-4.04-1.52-5.72c2.33-3.07,5.54-5.09,9.79-5.44
		c13.16-1.13,26.03,4.15,39.08,2.07c8.46-1.35,16.99-2.2,25.25-5.6c13.09-5.37,25.15-12.71,37.98-18.58
		c6.4-2.94,12.93-6.12,19.28-9.44c4.15-2.18,8.67-4.19,13.48-5.5c3.85-1.07,7.67-3.32,11.59-4.82c5.25-2.02,10.62-3.7,15.89-5.65
		c4.8-1.78,10.22-1.3,14.74-4.05c0.23-0.13,0.53-0.2,0.8-0.18c7.72,0.47,14.96-3.54,22.83-2.35c3.8,0.57,7.81,0.5,11.64,0.02
		c7.97-1.05,15.63,1.17,23.18,2.6c5.75,1.1,11.46,3.7,16.81,6.69c4,2.25,8.41,3.92,12.39,6.14c4.45,2.49,9.04,4.67,13.61,6.85
		c4.25,2.03,8.46,4.24,12.69,6.27c5.92,2.84,11.77,6.04,17.71,8.94c5.59,2.74,11.26,5.44,16.71,8.34
		c7.07,3.75,14.71,6.02,21.73,9.91c4.32,2.38,9.67,3.82,14.83,5.07c18.08,4.37,36.37,1.15,54.54,1.73
		c4.84,0.15,10.04-2.17,14.59-4.34c6.74-3.17,13.49-6.37,19.85-10.34c6-3.75,11.31-8.44,17.06-12.49c3.85-2.7,8.61-3.62,13.44-2.8
		C-1420.79,744.74-1419.82,745.49-1419.97,747.02z"/>
	<path d="M-1392.69,537.43c0,3.2-0.03,5.27,0,7.35c0.12,6.59-2.45,12.53-3.97,18.76c-1.82,7.54-5.94,13.71-9.51,20.18
		c-3.9,7.09-10.19,12.36-15.88,18.06c-7.07,7.09-15.68,12.14-24.33,16.49c-4.7,2.35-10.26,4.24-15.93,5.45
		c-14.14,3.04-28.29,4.95-42.65,6.39c-6.02,0.58-11.69-0.17-17.46-0.58c-2.47-0.17-5.32-2.15-7.07-4.14
		c-3.6-4.05-7.39-8.41-6.04-14.58c1.12-5.02,4.17-8.74,8.61-11.26c5.34-3.04,11.47-3.19,17.3-4.3c6.1-1.18,12.19-2.52,18.3-3.6
		c4-0.72,7.62-2.52,11.64-3.12c3.17-0.48,6.19-2.05,9.22-3.29c3.75-1.53,7.37-3.44,11.14-4.84c4.84-1.78,8.27-5.47,12.44-8.11
		c2.54-1.6,5.24-3.57,7.09-5.74c3-3.52,6.84-6.99,7.79-11.61c0.47-2.28,1.93-3.72,2.74-5.5c2.99-6.7,1.53-13.59,1.97-20.4
		c0.4-6.29-2.3-11.82-3.74-17.7c-1.62-6.59-5.37-11.99-7.62-18.16c-1.92-5.27-6.39-9.76-11.64-12.78
		c-7.77-4.44-16.21-6.27-25.08-6.44c-2.08-0.05-4.22,0.27-6.24-0.05c-8.94-1.4-17.36,2.33-26.18,2.47
		c-3.09,0.05-6.25,2.48-9.17,4.17c-5.42,3.14-10.67,6.54-16.04,9.77c-7.39,4.42-14.23,9.74-21.28,14.61
		c-3.85,2.69-8.16,5.29-11.72,8.76c-2.97,2.89-6.79,5.09-10.21,7.62c-3.79,2.8-7.62,5.57-11.52,8.22
		c-5.69,3.87-11.24,8.04-17.28,11.27c-2.72,1.45-5.19,3.6-7.47,5.22c-3.42,2.4-7.39,4.44-10.49,7.62c-2.75,2.85-6.74,4.49-9.96,6.95
		c-5.65,4.34-11.84,7.91-17.63,12.06c-5.64,4.07-11.02,8.57-17.3,11.84c-3.67,1.9-7.22,4.42-10.24,7.14
		c-5.67,5.09-12.61,8.11-18.5,12.66c-6.15,4.77-12.58,9.16-18.9,13.59c-5.84,4.09-11.57,8.41-17.78,12.06
		c-3.44,2.02-6.57,4.82-10.02,7c-8.42,5.34-15.81,12.14-24.77,16.79c-3.3,1.72-6.27,4.42-9.32,6.72
		c-6.8,5.15-14.13,9.56-20.85,14.76c-5.5,4.25-11.41,7.96-17.06,11.92c-5.45,3.82-10.64,8.17-16.68,11.26
		c-3.47,1.78-6.37,4.65-9.59,6.92c-3.79,2.65-7.67,5.17-11.47,7.79c-3.57,2.47-7.1,4.97-10.62,7.52c-3.27,2.37-6.55,4.69-10.07,6.69
		c-3.59,2.03-6.94,4.65-10.04,7.17c-6.44,5.24-14.06,8.64-20.23,14.08c-3.29,2.89-7.02,5.3-10.64,7.49c-3.1,1.87-5.4,4.99-9.32,5.94
		c-2.57,0.63-4.64,3.3-6.8,5.05c-3.92,3.14-8.17,5.87-12.16,8.86c-4.95,3.72-10.22,7.2-15.51,10.57c-4.32,2.77-8.29,6.09-12.54,8.86
		c-5.92,3.85-11.34,8.44-17.56,11.89c-3.54,1.97-6.22,5.29-10.07,7.04c-3.44,1.58-5.97,4.67-9.54,6.15c-1.1,0.45-2.2,1.22-3.02,2.1
		c-5.35,5.92-12.76,9.16-18.83,14.21c-5.1,4.25-11.52,7.54-17.26,11.37c-5.6,3.74-11.11,7.64-16.58,11.56
		c-4.5,3.22-9.36,5.9-13.43,9.79c-1.98,1.88-4.74,2.94-7.07,4.57c-9.97,7-20.05,13.83-29.85,21.11c-5.1,3.79-10.81,7.22-16.31,10.71
		c-6.29,3.99-11.72,9.36-18.15,13.06c-5.5,3.15-10.19,7.3-15.46,10.69c-1.62,1.03-3.17,0.77-4.77,0.83
		c-2.37,0.08-4.74,0.02-7.09,0.02c-8.49,0-15.28-4.92-18.3-12.86c-2.35-6.22,0.22-11.76,3.09-16.56c3.27-5.5,8.47-9.96,13.73-13.51
		c4.29-2.92,8.22-6.39,12.76-8.99c3.99-2.28,7.89-4.85,11.44-7.77c3-2.48,6.54-4.1,9.57-6.57c3.47-2.82,7.82-4.57,11.31-7.39
		c3.19-2.57,6.8-4.5,9.77-7.2c1.32-1.2,2.84-1.38,4.14-2.32c9.51-6.85,19.2-13.44,28.79-20.16c6.67-4.67,13.69-8.84,20.23-13.63
		c5.54-4.07,11.49-7.49,16.91-11.67c7.12-5.49,14.93-9.97,22.1-15.39c7.54-5.69,15.76-10.42,23.43-15.93
		c6.37-4.55,13.16-8.47,19.46-13.08c5.75-4.2,11.47-8.62,17.41-12.44c5.94-3.8,11.61-8.09,17.71-11.71
		c3.5-2.08,7.47-4.25,10.09-7.76c1.97-2.64,5.25-3.15,7.77-4.92c6.84-4.8,13.69-9.62,20.58-14.29c4.99-3.37,9.99-6.99,15.38-9.92
		c4.29-2.35,8.01-5.75,12.06-8.57c5.72-3.99,11.52-7.84,17.28-11.77c10.47-7.2,20.93-14.44,31.4-21.65
		c8.87-6.1,17.73-12.21,26.63-18.26c5.64-3.84,11.37-7.49,16.98-11.37c5.77-3.97,11.44-8.12,17.13-12.19
		c4.94-3.55,9.87-7.39,14.99-10.32c7.05-4.07,12.86-9.74,19.95-13.58c6.07-3.3,11.44-7.69,17.34-11.29c3.12-1.9,6.09-4.55,9.36-6.5
		c5.37-3.24,10.04-7.47,15.56-10.51c3.74-2.05,6.92-4.99,10.44-7.42c3.85-2.67,7.76-5.27,11.66-7.89
		c8.46-5.69,16.74-11.64,25.05-17.55c2.7-1.92,5.44-3.82,8.09-5.79c7.39-5.42,15.63-9.69,22.92-15.23
		c5.62-4.27,11.56-8.11,17.24-12.24c3.75-2.72,8.12-4.74,11.94-7.44c6.3-4.47,12.36-9.24,19.1-13.13c2.95-1.68,5.84-3.89,8.52-6.15
		c9.02-7.67,19.2-13.74,29.74-18.83c6.3-3.05,13.29-5.19,20.01-7.55c12.49-4.39,25.13-4.17,37.86-3.82
		c4.45,0.12,8.92,1.75,13.13,3.52c2.75,1.15,5.7,1.12,8.57,2.6c5.39,2.79,11.26,4.62,15.99,8.66c2.6,2.22,5.7,3.59,8.37,5.94
		c6.02,5.34,11.74,10.99,16.81,17.14c4.15,5.05,8.29,10.47,10.61,16.69c1.52,4.07,3.92,7.62,5.25,11.89
		C-1395.11,515.2-1391.82,526.46-1392.69,537.43z"/>
	<path class="st0" d="M-1735.05,515.87c-2.13-3.42-2.23-7.4-4.12-10.84c-2.2-4.02-2.84-8.79-4.7-12.79
		c-3.12-6.64-5.87-13.41-8.67-20.16c-0.83-2.03-1.03-4.55-2.15-6.09c-4.14-5.62-4.92-12.59-8.16-18.56
		c-2.57-4.74-4.65-9.92-5.94-14.99c-1.1-4.35-4.27-7.34-5.24-11.59c-0.65-2.9-4.59-4.17-6-2.3c-2.1,2.82-4.85,4.97-7.09,7.64
		c-7.49,8.94-13.94,18.76-22.83,26.53c-3.34,2.92-5.59,2.52-7.07-1.57c-1.57-4.4-2.95-9.02-4.9-13.08
		c-2.99-6.2-4.64-12.98-8.19-18.85c-3.49-5.79-1.1-12.22-2.5-18.21c-0.25-1.1,0.58-2.43,2.42-2.74c6.59-1.02,13.29,0.17,18.78,2.75
		c6.69,3.15,13.53,6.14,20.16,9.47c3.87,1.95,8.31,1.1,10.89-2.27c2.69-3.52,5.14-7.14,7.04-11.32c2.32-5.1,4.29-9.92,3.97-15.56
		c-0.1-1.62-0.37-3.3,0.57-4.89c0.88-1.5-0.38-2.69-1.12-3.67c-0.67-0.88-2.33-0.85-3.07-0.2c-2.59,2.28-6.17,3.1-8.29,6.17
		c-1.98,2.87-6.1,3.14-8.29,6.15c-0.67,0.93-2.48,0.68-3.85-0.82c-4.15-4.54-5.15-10.62-8.34-15.66c-2.52-3.97-3.19-4.29-6.8-1.27
		c-3.67,3.07-5.85,8.51-12.36,7.45c-4.37-0.7-8.91,1.33-9.91-6.24c-0.7-5.32-2.59-11.16-5.8-15.93c-2.03-3-1.87-6.59-3.72-9.71
		c-3.79-6.37,0.15-14.48,7.3-15.79c2.32-0.43,2.9-1.62,3-3.67c0.12-2.12-0.67-2.7-2.79-3c-4.09-0.58-8.06-1.53-8.27-7.15
		c-0.05-1.43-1.7-3.29-3.85-3.52c-2.33-0.25-3.92,1.25-4.44,3.05c-1.38,4.99-5.34,6.47-9.54,7.72c-1.77,0.53-3.6,1.97-3.25,3.15
		c0.4,1.35,1.55,3.44,3.87,3.37c0.68-0.02,1.38-0.03,2.07,0.02c4.7,0.35,6.29,2.57,6.82,7.19c0.9,7.94-2.92,14.51-5.29,21.56
		c-1.85,5.49-5.2,10.46-5.72,16.43c-0.05,0.62-0.52,1.32-0.98,1.73c-1.55,1.37-10.64,0.88-12.07-0.73
		c-2.8-3.14-6.04-5.37-10.16-6.47c-1.6-0.43-1.82-0.67-2.82,1.15c-2.4,4.42-1.32,9.62-3.92,13.96c-0.88,1.48-0.08,4.04-3.15,3.59
		c-1.88-0.27-3.85,0.42-5.72-0.52c-5.95-2.95-11.21-7.1-17.36-9.79c-4.17-1.82-6.1-0.63-6.57,3.95c-0.77,7.77,2.28,14.16,6.49,20.21
		c3.09,4.44,7.34,7.81,11.22,11.44c2.74,2.57,2.5,4.69,0.37,6.94c-3.67,3.85-6.67,8.24-9.36,12.68
		c-3.85,6.35-8.17,12.43-11.49,19.25c-2.4,4.95-5.35,9.96-7.62,14.99c-2.85,6.29-5.94,12.66-7.27,19.7c-0.5,2.64-1.37,5.5-2.37,8.14
		c-1.88,4.95-2.95,10.09-3.64,15.28c-0.35,2.59-0.42,5.05-1.6,7.54c-2.69,5.64-0.68,8.66,5.35,8.66c1.4,0,2.79,0.03,4.17-0.02
		c3.1-0.1,7.2-3.92,7.07-7.02c-0.2-4.47,2-8.36,3.09-12.43c1.08-4.02,1.65-8.22,3.1-12.24c0.85-2.39,2.8-4.75,2.52-7.52
		c-0.37-3.74,1.72-6.89,2.8-10.06c1.75-5.1,3.79-10.24,6.17-15.16c2.17-4.45,3.94-9.27,8.32-12.19c2.52-1.68,5.37-5.59,8.12-2.74
		c2.54,2.64,4.95,5.99,6.77,9.24c2.67,4.75,6.52,8.96,7.87,14.41c1.02,4.12,3.89,7.84,3.22,12.29c-0.73,5.04-3.29,9.56-5.14,14.18
		c-3,7.47-6.8,14.59-7.87,22.72c-0.28,2.15-3.72,4.22-1.27,6.1c1.52,1.17,4.55,0.37,6.89,0.42c0.98,0.03,1.97-0.08,2.92,0.03
		c2,0.2,3.45-0.98,3.95-2.45c0.73-2.18,1.95-4.22,2.55-6.34c2.18-7.82,3.24-15.94,6.57-23.47c0.52-1.17,0.4-2.5,2.12-2.32
		c2.13,0.22,4.9-1.12,6.25,0.83c1.98,2.85,3.2,6.24,4.69,9.44c2.3,4.97,4.92,9.71,9.69,12.78c1.7,1.08,3.92,1.45,5.34-0.08
		c3.92-4.29,8.72-7.74,11.29-13.36c1.3-2.82,4.35-4.87,6.74-7.12c0.88-0.83,1.22,0.3,1.75,0.92c2.9,3.32,4.75,7.2,6.82,11.06
		c2.5,4.65,3.89,9.66,6.04,14.38c1.05,2.27,2.35,3.6,4.94,3.57c4.44-0.05,8.91-0.22,13.33,0.05c3.79,0.22,4.22-2.22,3.2-4.42
		c-2.5-5.39-4.04-11.22-6.7-16.41c-3.35-6.54-5.22-13.54-8.01-20.23c-0.83-2-0.97-5.17,0.08-6.9c4.7-7.76,8.24-16.29,14.91-22.78
		c2.17-2.1,4.5-3.84,7.44-2.75c3.15,1.17,4.89,4.22,5.27,7.29c0.42,3.44,1.82,6.67,3.04,9.51c2.48,5.77,3.82,11.91,5.44,17.76
		c1.72,6.15,4.4,12.12,5.15,18.66c0.23,1.98,0.8,5.12,2.28,6.69c2.54,2.7,2.33,6.29,3.39,9.24c1.2,3.39,2.23,4.54,5.5,4.32
		c1.93-0.13,3.89-0.03,5.82-0.03c2.22,0,4.45,0.02,6.67,0C-1734.97,521.59-1733.05,519.09-1735.05,515.87z M-1866.76,437.08
		c-1.27,2.27-2.52,4.55-3.94,6.7c-1.7,2.57-5.12,2.84-7.02,0.63c-2.85-3.32-6.27-6.37-8.27-10.16c-3.32-6.29-8.97-10.39-13.21-15.76
		c-1.93-2.47-3.09-4.49,0.6-6.32c7.64-3.82,15.06-8.21,22.95-11.41c5.02-2.05,10.71-2.59,16.14-3.52c3.8-0.65,5.65,1.13,5.69,4.89
		c0.02,1.8,0,3.6,0,6.4c1.18,5.82-2.3,10.76-5.79,16.18C-1862.14,428.66-1864.42,432.93-1866.76,437.08z M-1842.69,482.68
		c-6.09,0.55-11.44-1.63-14.19-7.05c-3.75-7.37-5.1-15.39-2.27-23.62c1.13-3.32,1.95-6.75,3.17-10.02c1.23-3.3,2.59-6.59,4.24-9.69
		c1.37-2.57,7.74-2.33,8.99,0.35c4,8.54,9.39,16.46,12.17,25.48c0.98,3.14,1.93,6.39,2.65,9.62
		C-1826.11,476.02-1833.92,484.46-1842.69,482.68z"/>
	<path class="st0" d="M-1975.43,586.01c-0.62,5.35-2.18,11.02-5.35,16.01c-1.95,3.05-3.32,6.57-5.05,9.86
		c-2.45,4.59-5.19,8.89-8.42,13.01c-2.67,3.42-5.27,6.77-8.66,9.47c-8.09,6.4-15.91,13.04-25.6,17.26
		c-4.27,1.87-8.64,3.97-12.96,5.59c-3.02,1.13-6.6,2.13-9.57,3.29c-4.15,1.62-8.76,2.64-12.69,3.29c-5.99,0.98-11.96,3.04-18.2,2.84
		c-6.29-0.2-7.89,1.5-7.89,7.54c0,20.98,0.08,41.94-0.07,62.91c-0.03,3.99,1.18,5.82,5.25,5.2c8.49-1.3,16.49,2.27,24.88,2.72
		c4.12,0.22,9.24,1.03,13.56,3.6c3.49,2.08,1.27,4.59,1.72,6.82c0.5,2.38-1.67,2-3.1,2.03c-7.04,0.15-13.63-2.22-20.38-3.67
		c-0.67-0.13-1.3-0.67-1.92-0.63c-10.37,0.45-20.56-2.37-30.84-1.97c-8.89,0.35-17.85,1.27-26.63,3.67
		c-4.05,1.12-8.11,3.65-12.69,2.62c-1.35-0.3-3.5,0.77-3.74-1.47c-0.23-2.25-1.28-5.44,1.1-6.52c2.27-1.02,4.67-2.13,6.97-3.07
		c4.34-1.77,9.06-1.37,13.26-3.4c3.5-1.7,7.37-0.42,11.06-0.72c1.67-0.13,3.34,0.05,5-0.03c3.67-0.22,5.72-2.35,5.74-5.95
		c0.02-18.46,0.02-36.94-0.02-55.4c0-4.42-2.6-8.37-2.27-12.88c0.05-0.62-0.55-0.77-1.17-0.83c-1.22-0.13-2.49-0.75-3.64-0.55
		c-7.44,1.25-14.58-1.28-21.56-2.67c-5.62-1.1-11.76-2.23-17.01-5.5c-2.07-1.28-4.75-1.22-7.2-2.38
		c-9.06-4.34-17.66-9.11-25.9-15.01c-8.11-5.8-14.53-12.89-20.36-20.55c-2.9-3.8-5.07-8.42-7.2-12.91
		c-1.93-4.07-3.54-8.29-5.5-12.34c-1.22-2.52-2.4-5.54-2.57-7.94c-0.48-7.09-3.99-13.83-2.52-21.1c0.23-1.23-0.7-3.27,1.35-3.35
		c2.37-0.1,5.65-1.47,6.97,0.8c1.25,2.15,2.97,4.42,2.6,7.57c-0.7,5.97,2.27,11.37,3.42,17.06c1.02,4.95,2.74,9.61,5.19,14.03
		c5.52,9.97,12.17,19.13,20.73,26.67c9.42,8.29,20.38,14.43,31.64,19.76c2.7,1.27,5.9,2.82,9.34,2.69c2.58-0.1,4.77,1.68,7.14,2.45
		c5.1,1.63,10.59,1.07,15.51,3.35c3.35,1.55,7.19,1,10.61,0.4c2.32-0.43,1.95-3.9,2.25-5.92c0.55-3.65,0.5-7.51,0.05-11.21
		c-0.28-2.35-1.97-4.67-4.87-4.17c-5.39,0.92-10.41-1.47-15.09-2.72c-9.02-2.42-18.08-5.54-26.35-10.36
		c-8.17-4.77-15.84-10.27-21.45-17.81c-3.29-4.42-6.14-9.31-8.27-14.69c-3.2-8.07-4.27-16.11-4.05-24.6
		c0.08-2.72,0.85-3.85,3.59-3.49c0.95,0.13,1.95,0.12,2.92,0.02c3.24-0.33,4.97,1.13,4.34,4.3c-1.15,5.72,0.88,11.29,2.74,15.99
		c2.48,6.24,5.55,12.64,10.37,17.95c6.5,7.15,14.04,13.11,22.4,17.41c4.6,2.37,10.07,4.19,15.61,5.22
		c4.44,0.82,8.71,2.18,13.31,1.92c1.75-0.1,2.59-0.35,2.9-2.45c0.55-3.74,2.38-7.17,2.13-11.19c-0.33-5.1-2.4-7.44-7.66-8.06
		c-12.84-1.52-22.95-8.32-30.84-17.98c-2.52-3.09-4.62-7.39-5.22-12.09c-0.3-2.45-1.73-4.89-1.98-7.69
		c-0.25-2.87,1.67-4.44,3.19-5.1c1.97-0.87,4.6-0.27,6.95-0.17c0.28,0.02,0.75,0.85,0.75,1.32c0.02,7.07,3.65,12.98,7.1,18.53
		c3.69,5.95,8.54,11.36,16.38,12.47c2.18,0.3,3.75,2.3,6.42,2.23c3.5-0.07,4.7-1.65,4.79-4.65c0.1-3.89,0.03-7.77,0.03-11.66
		c0-3.75-0.02-7.51,0.02-11.26c0.02-3.65,1.97-5.22,5.54-5.05c3.37,0.17,5.2,1.97,5.24,5.27c0.1,7.22,0.03,14.44,0.03,21.66
		c0.02,5.22,2.99,7.66,7.69,5.29c5.94-2.97,12.73-4.95,16.96-10.54c3.47-4.6,6.7-9.42,7.84-15.29c0.52-2.62,2.33-4.74,2.54-7.64
		c0.12-1.75,2.89-0.92,4.4-0.83c2.13,0.13,3.62,1.62,3.79,3.74c0.58,7.32-0.45,13.84-5.29,20.25c-5.6,7.4-12.59,12.34-20.56,16.29
		c-2.94,1.45-6.29,2.45-9.56,2.82c-6.24,0.67-7.81,2.02-7.81,8.31c0,3.34-0.03,6.67,0.02,9.99c0.08,4.74,2.52,6.34,6.65,4.44
		c0.87-0.38,1.78-0.9,2.69-0.93c11.17-0.52,20.91-5.25,30.19-10.84c6.69-4.04,12.93-8.94,17.55-15.46
		c4.17-5.87,7.72-12.36,9.56-19.11c1.2-4.4,3.74-8.94,2.69-13.96c-0.57-2.74,0.77-3.55,3.45-3.47c8.91,0.27,7.14-1.05,7.35,7.15
		c0,0.13-0.02,0.28,0,0.42c1.18,10.34-3.35,18.85-8.24,27.47c-4.57,8.04-10.99,14.31-18.1,19.68c-5.9,4.47-12.73,7.76-19.81,10.57
		c-4.97,1.97-10.11,3.89-15.13,5.5c-3.77,1.2-7.69,3.25-12.12,2.92c-4.7-0.37-6.72,1.93-6.74,6.52c0,4.04,0.08,8.06-0.02,12.09
		c-0.05,2.05,0.57,2.97,2.82,2.95c3.74,0,7.34-0.3,10.99-1.37c4.62-1.33,9.51-1.78,14.16-3.07c4.92-1.37,9.99-2.6,14.58-4.62
		c6.77-3,13.59-6.02,19.86-10.21c8.72-5.82,16.98-12.29,23.57-20.31c3.77-4.6,6.85-10.04,9.69-15.58
		c3.52-6.85,5.82-14.08,7.64-21.25c1.28-5.04,4.05-10.19,2.84-15.86c-0.73-3.42,1.8-3.12,3.87-2.94c1.98,0.17,4.05-1.08,4.99,2.85
		C-1973.19,572.62-1974.68,579.38-1975.43,586.01z"/>
	<path class="st0" d="M-1862.62,551.97c0.38,2.4-1.65,2.07-3.12,2.07c-13.31,0.02-26.6-0.03-39.91,0.03
		c-13.19,0.07-26.2,3.24-39.49,2.32c-3.15-0.22-5.5-1.68-7.82-2.99c-3.24-1.82-3.05-4.47,0.05-6.8c2.6-1.97,5.42-3.47,9.01-3.42
		c11.49,0.17,23,0.07,34.51,0.07c10.12,0,20.25,0.22,30.35-0.1c5.19-0.15,10.06,1.03,14.88,2.4
		C-1860.83,546.5-1862.97,549.79-1862.62,551.97z"/>
</g>
<g>
	<path d="M-1272.6,466.9c0-1.28,0.34-2.29,1.02-3.05c0.68-0.76,1.64-1.14,2.89-1.14h88.55c1.31,0,2.32,0.4,3.03,1.18
		c0.71,0.79,1.07,1.85,1.07,3.18v22.56c0,1.04-0.36,2.02-1.07,2.96c-0.71,0.94-1.75,1.41-3.12,1.41h-57.84v22.63h44.63
		c1.13,0,2.07,0.27,2.81,0.82c0.74,0.55,1.11,1.46,1.11,2.74v19.71c0,0.85-0.33,1.67-0.98,2.46c-0.66,0.79-1.61,1.19-2.86,1.19
		h-44.72v23.35h59.98c2.68,0,4.01,1.4,4.01,4.19V594c0,0.61-0.24,1.15-0.71,1.64c-0.24,1.7-1.46,2.54-3.66,2.54h-90.25
		c-1.19,0-2.14-0.32-2.85-0.96c-0.71-0.64-1.07-1.63-1.07-2.97V466.9z"/>
	<path d="M-1165.06,595.81c0.48-0.91,0.97-1.84,1.48-2.78c0.51-0.94,1.09-1.9,1.74-2.87l40.16-61.31
		c-6.84-10.52-13.61-20.92-20.31-31.2c-6.69-10.28-13.46-20.68-20.31-31.2c-0.36-0.49-0.64-0.95-0.85-1.37
		c-0.21-0.43-0.35-0.88-0.4-1.37c0.12-0.48,0.46-0.71,1.02-0.68c0.57,0.03,1.15-0.11,1.74-0.41h31.06c2.2,0,3.93,1.16,5.18,3.47
		l21.87,33.57l22.13-33.57c1.25-2.31,2.97-3.47,5.18-3.47h28.02c0.48,0,1.04,0,1.7,0c0.65,0,1.26,0.02,1.83,0.05
		c0.57,0.03,1.06,0.13,1.48,0.32c0.41,0.18,0.62,0.46,0.62,0.82c0,0.73-0.33,1.53-0.98,2.37l-41.06,62.68l41.86,63.86
		c0.6,0.85,1.05,1.63,1.38,2.33c0.33,0.7,0.46,1.29,0.4,1.78c0,0.91-0.53,1.37-1.6,1.37h-31.96c-1.01,0-1.93-0.31-2.76-0.91
		c-0.84-0.61-1.49-1.43-1.97-2.46l-24.28-36.77l-24.01,36.77c-0.48,1.04-1.13,1.85-1.97,2.46c-0.83,0.61-1.75,0.91-2.76,0.91h-30.44
		h-1.61c-0.48,0-0.89-0.14-1.25-0.41c-0.36-0.27-0.54-0.65-0.54-1.14C-1165.24,596.33-1165.18,596.06-1165.06,595.81z"/>
	<path d="M-1035.99,530.58c0-6.44,0.8-12.63,2.41-18.56c1.6-5.93,3.9-11.49,6.88-16.69c2.97-5.2,6.53-9.93,10.67-14.19
		c4.14-4.25,8.74-7.89,13.8-10.9c5.06-3.01,10.49-5.35,16.3-7.02c5.81-1.67,11.87-2.51,18.17-2.51c6.25,0,12.29,0.84,18.13,2.51
		s11.28,4.01,16.34,7.02c5.06,3.01,9.68,6.65,13.85,10.9c4.16,4.26,7.72,8.99,10.67,14.19c2.95,5.2,5.24,10.76,6.88,16.69
		c1.64,5.93,2.46,12.12,2.46,18.56c0,6.45-0.82,12.64-2.46,18.57s-3.93,11.46-6.88,16.6c-2.95,5.15-6.5,9.83-10.67,14.05
		c-4.17,4.23-8.79,7.86-13.85,10.9c-5.06,3.04-10.51,5.38-16.34,7.02c-5.84,1.64-11.88,2.46-18.13,2.46
		c-6.31,0-12.37-0.82-18.17-2.46c-5.81-1.64-11.24-3.98-16.3-7.02c-5.06-3.05-9.66-6.68-13.8-10.9c-4.14-4.23-7.7-8.91-10.67-14.05
		c-2.98-5.13-5.27-10.67-6.88-16.6C-1035.19,543.22-1035.99,537.03-1035.99,530.58z M-1001.46,530.49c0,5.05,0.83,9.76,2.49,14.14
		c1.66,4.38,4,8.2,7,11.45c3,3.25,6.55,5.81,10.65,7.66c4.1,1.85,8.61,2.78,13.55,2.78c4.93,0,9.46-0.93,13.59-2.78
		s7.7-4.41,10.7-7.66c3-3.25,5.33-7.07,7-11.45c1.66-4.38,2.49-9.09,2.49-14.14c0-4.98-0.83-9.68-2.49-14.09
		c-1.66-4.41-4-8.26-7-11.54s-6.56-5.87-10.7-7.75c-4.13-1.89-8.66-2.83-13.59-2.83c-4.93,0-9.45,0.94-13.55,2.83
		c-4.1,1.88-7.65,4.47-10.65,7.75s-5.33,7.13-7,11.54C-1000.63,520.81-1001.46,525.51-1001.46,530.49z"/>
	<path d="M-762.88,530.58c0,6.45-0.8,12.58-2.41,18.39c-1.61,5.81-3.9,11.22-6.88,16.24c-2.97,5.02-6.53,9.57-10.66,13.64
		c-4.14,4.07-8.72,7.54-13.75,10.4c-5.03,2.86-10.46,5.07-16.29,6.61c-5.83,1.55-11.87,2.33-18.12,2.33h-44
		c-1.07,0-2.03-0.24-2.86-0.73c-0.84-0.48-1.25-1.52-1.25-3.1V466.9c0-1.28,0.35-2.31,1.03-3.1c0.68-0.79,1.71-1.19,3.08-1.19h44
		c6.25,0,12.27,0.79,18.07,2.37c5.8,1.59,11.21,3.83,16.24,6.75c5.03,2.92,9.63,6.41,13.79,10.49c4.17,4.08,7.72,8.64,10.66,13.69
		c2.95,5.04,5.24,10.49,6.88,16.33C-763.7,518.09-762.88,524.2-762.88,530.58z M-844.54,495.37v70.16h7.49
		c1.37,0,2.71-0.05,4.01-0.14c1.31-0.09,2.62-0.19,3.93-0.32c4.46-0.37,8.63-1.48,12.49-3.33c3.86-1.85,7.24-4.29,10.13-7.3
		s5.14-6.55,6.78-10.63c1.64-4.08,2.46-8.51,2.46-13.32c0-5.11-0.94-9.81-2.81-14.09c-1.87-4.29-4.42-8-7.63-11.13
		c-3.21-3.13-6.98-5.57-11.29-7.3c-4.32-1.73-8.91-2.6-13.79-2.6H-844.54z"/>
	<path d="M-745.74,530.58c0-6.44,0.8-12.63,2.41-18.56c1.6-5.93,3.9-11.49,6.88-16.69c2.97-5.2,6.53-9.93,10.67-14.19
		c4.14-4.25,8.74-7.89,13.8-10.9c5.06-3.01,10.49-5.35,16.3-7.02s11.87-2.51,18.17-2.51c6.25,0,12.29,0.84,18.13,2.51
		s11.28,4.01,16.34,7.02c5.06,3.01,9.68,6.65,13.85,10.9c4.17,4.26,7.72,8.99,10.67,14.19c2.95,5.2,5.24,10.76,6.88,16.69
		c1.64,5.93,2.46,12.12,2.46,18.56c0,6.45-0.82,12.64-2.46,18.57c-1.64,5.93-3.93,11.46-6.88,16.6c-2.95,5.15-6.5,9.83-10.67,14.05
		c-4.17,4.23-8.79,7.86-13.85,10.9c-5.06,3.04-10.51,5.38-16.34,7.02c-5.84,1.64-11.88,2.46-18.13,2.46
		c-6.31,0-12.37-0.82-18.17-2.46c-5.81-1.64-11.24-3.98-16.3-7.02c-5.06-3.05-9.66-6.68-13.8-10.9c-4.14-4.23-7.7-8.91-10.67-14.05
		c-2.98-5.13-5.27-10.67-6.88-16.6C-744.94,543.22-745.74,537.03-745.74,530.58z M-711.2,530.49c0,5.05,0.83,9.76,2.49,14.14
		c1.66,4.38,4,8.2,7,11.45c3,3.25,6.55,5.81,10.65,7.66c4.1,1.85,8.61,2.78,13.55,2.78s9.46-0.93,13.59-2.78s7.7-4.41,10.7-7.66
		c3-3.25,5.33-7.07,7-11.45c1.66-4.38,2.49-9.09,2.49-14.14c0-4.98-0.83-9.68-2.49-14.09c-1.66-4.41-4-8.26-7-11.54
		c-3-3.29-6.56-5.87-10.7-7.75c-4.13-1.89-8.66-2.83-13.59-2.83s-9.45,0.94-13.55,2.83c-4.1,1.88-7.65,4.47-10.65,7.75
		c-3,3.29-5.33,7.13-7,11.54C-710.37,520.81-711.2,525.51-711.2,530.49z"/>
	<path d="M-1166.3,647.54c1.01,0.61,1.75,1.4,2.23,2.37c0.47,0.97,0.38,2.13-0.27,3.47l-15.08,21.89c-0.66,1.04-1.36,1.63-2.1,1.78
		c-0.75,0.16-1.65-0.1-2.72-0.77c-2.92-2.25-6.13-3.98-9.64-5.2c-3.51-1.21-7.23-1.82-11.16-1.82c-4.88,0-9.37,0.94-13.47,2.83
		c-4.11,1.88-7.65,4.47-10.62,7.75c-2.97,3.29-5.3,7.12-6.96,11.5c-1.66,4.38-2.5,9.06-2.5,14.05c0,4.98,0.84,9.66,2.5,14
		c1.66,4.35,3.99,8.15,6.96,11.4c2.98,3.25,6.51,5.82,10.62,7.71c4.1,1.89,8.6,2.83,13.47,2.83c3.93,0,7.68-0.62,11.25-1.87
		s6.81-3,9.73-5.25c1.07-0.67,1.97-0.94,2.68-0.82s1.43,0.67,2.14,1.64l15.26,22.45c0.65,1.34,0.74,2.46,0.27,3.37
		c-0.48,0.91-1.22,1.68-2.23,2.28c-5.6,3.83-11.62,6.79-18.07,8.89c-6.46,2.1-13.25,3.15-20.4,3.15c-6.3,0-12.36-0.82-18.16-2.46
		c-5.8-1.64-11.23-3.98-16.29-7.02c-5.06-3.05-9.66-6.68-13.79-10.9c-4.14-4.23-7.7-8.91-10.67-14.05
		c-2.97-5.13-5.27-10.67-6.87-16.6c-1.61-5.93-2.41-12.12-2.41-18.57c0-6.44,0.8-12.63,2.41-18.56c1.6-5.93,3.9-11.49,6.87-16.69
		c2.97-5.2,6.53-9.93,10.67-14.19c4.13-4.25,8.73-7.89,13.79-10.9c5.06-3.01,10.49-5.35,16.29-7.02c5.8-1.67,11.86-2.51,18.16-2.51
		c7.14,0,13.88,1.02,20.22,3.06C-1177.86,640.77-1171.9,643.7-1166.3,647.54z"/>
	<path d="M-1103.74,641.24c0.06-0.37,0.25-0.76,0.58-1.19c0.33-0.43,0.73-0.82,1.21-1.19c0.47-0.37,0.98-0.65,1.51-0.87
		c0.53-0.21,1.04-0.32,1.52-0.32h22.85c1.01,0,1.88,0.32,2.59,0.96c0.71,0.63,1.25,1.2,1.61,1.69l2.23,5.2l46.86,123.52
		c0.47,1.21,0.38,2.2-0.27,2.96c-0.66,0.76-1.79,1.14-3.39,1.14h-25.62c-1.37,0-2.42-0.26-3.17-0.77c-0.75-0.52-1.33-1.39-1.74-2.6
		c-1.19-3.1-2.36-6.19-3.49-9.26c-1.13-3.07-2.26-6.16-3.39-9.26h-47.39c-1.13,3.1-2.28,6.19-3.44,9.26
		c-1.16,3.07-2.31,6.16-3.44,9.26c-0.77,2.25-2.29,3.37-4.55,3.37h-26.33c-1.13,0-2.07-0.31-2.81-0.91
		c-0.74-0.61-0.87-1.52-0.4-2.73L-1103.74,641.24z M-1087.49,680.29c-1.13,3.1-2.27,6.45-3.44,10.03
		c-1.16,3.59-2.31,7.21-3.44,10.86c-1.13,3.65-2.28,7.26-3.44,10.81c-1.16,3.56-2.31,6.89-3.44,9.99h27.4L-1087.49,680.29z"/>
	<path d="M-1008.15,641.61c0-1.09,0.36-2.04,1.07-2.83c0.71-0.79,1.7-1.19,2.95-1.19h26.42c1.01,0,1.93,0.37,2.77,1.1
		c0.83,0.73,1.28,1.7,1.34,2.92v99.26h49.09c1.07,0,1.99,0.37,2.77,1.1s1.16,1.73,1.16,3.01v23.99c0,1.04-0.34,1.98-1.02,2.83
		s-1.65,1.31-2.9,1.37h-79.7c-2.62,0-3.93-1.34-3.93-4.01V641.61z"/>
	<path d="M-865.97,641.24c0.06-0.37,0.25-0.76,0.58-1.19c0.33-0.43,0.73-0.82,1.21-1.19c0.47-0.37,0.98-0.65,1.51-0.87
		c0.53-0.21,1.04-0.32,1.52-0.32h22.85c1.01,0,1.88,0.32,2.59,0.96c0.71,0.63,1.25,1.2,1.61,1.69l2.23,5.2l46.86,123.52
		c0.47,1.21,0.38,2.2-0.27,2.96c-0.66,0.76-1.79,1.14-3.39,1.14h-25.62c-1.37,0-2.42-0.26-3.17-0.77c-0.75-0.52-1.33-1.39-1.74-2.6
		c-1.19-3.1-2.36-6.19-3.49-9.26c-1.13-3.07-2.26-6.16-3.39-9.26h-47.39c-1.13,3.1-2.28,6.19-3.44,9.26
		c-1.16,3.07-2.31,6.16-3.44,9.26c-0.77,2.25-2.29,3.37-4.55,3.37h-26.33c-1.13,0-2.07-0.31-2.81-0.91
		c-0.74-0.61-0.87-1.52-0.4-2.73L-865.97,641.24z M-849.73,680.29c-1.13,3.1-2.27,6.45-3.44,10.03c-1.16,3.59-2.31,7.21-3.44,10.86
		c-1.13,3.65-2.28,7.26-3.44,10.81c-1.16,3.56-2.31,6.89-3.44,9.99h27.4L-849.73,680.29z"/>
	<path d="M-756.46,729.37c1.01,0.85,2.31,1.99,3.88,3.42c1.58,1.43,3.38,2.85,5.4,4.24c3.03,2.07,6.04,3.68,9.01,4.83
		c2.97,1.16,6.1,1.74,9.37,1.74c3.03,0,5.58-0.35,7.63-1.05c2.05-0.7,3.67-1.63,4.86-2.78c1.19-1.15,2.04-2.49,2.54-4.01
		c0.51-1.52,0.76-3.13,0.76-4.83c0-1.88-0.7-3.57-2.09-5.06c-1.4-1.49-3.11-2.81-5.13-3.96c-2.02-1.16-4.14-2.14-6.34-2.96
		c-2.2-0.82-4.1-1.51-5.71-2.05c-7.14-2.55-13.39-5.3-18.74-8.25c-5.36-2.95-9.82-6.23-13.39-9.84c-3.57-3.61-6.25-7.59-8.03-11.94
		c-1.79-4.34-2.68-9.19-2.68-14.54c0-5.65,1.11-10.79,3.35-15.41c2.23-4.62,5.41-8.56,9.55-11.85c4.14-3.28,9.12-5.81,14.95-7.61
		c5.83-1.8,12.35-2.7,19.55-2.7c5.41,0,10.6,0.63,15.57,1.87c4.97,1.25,9.86,3.24,14.68,5.97c2.02,1.22,3.94,2.48,5.75,3.79
		c1.82,1.31,3.41,2.57,4.78,3.79c1.37,1.22,2.46,2.37,3.26,3.47s1.2,2.04,1.2,2.83c0,0.79-0.19,1.52-0.58,2.19
		c-0.38,0.67-0.97,1.43-1.74,2.28l-13.66,14.87c-1.01,1.04-2.02,1.55-3.03,1.55c-0.84,0-1.59-0.24-2.28-0.73
		c-0.68-0.49-1.44-1.1-2.27-1.83l-0.81-0.73c-1.19-1.04-2.51-2.1-3.97-3.19c-1.46-1.1-3.02-2.08-4.68-2.97
		c-1.67-0.88-3.42-1.61-5.27-2.19c-1.84-0.58-3.72-0.87-5.62-0.87c-1.97,0-3.81,0.17-5.53,0.5s-3.24,0.87-4.55,1.6
		s-2.36,1.69-3.12,2.87c-0.77,1.19-1.16,2.63-1.16,4.33c0,1.7,0.42,3.18,1.25,4.43c0.83,1.25,2.08,2.41,3.75,3.47
		c1.66,1.06,3.73,2.07,6.2,3.01c2.47,0.95,5.34,1.97,8.61,3.06c6.3,2.13,12.12,4.37,17.45,6.7c5.32,2.34,9.92,5.11,13.79,8.3
		c3.87,3.2,6.89,7.01,9.06,11.45c2.17,4.44,3.26,9.83,3.26,16.15c0,6.69-1.34,12.76-4.01,18.2c-2.68,5.45-6.35,10.08-11.02,13.91
		c-4.67,3.83-10.16,6.79-16.47,8.89c-6.31,2.1-13.09,3.15-20.35,3.15c-6.84,0-13.56-1.25-20.17-3.75
		c-6.61-2.5-12.77-5.86-18.48-10.07c-2.38-1.77-4.39-3.51-6.02-5.22c-1.64-1.7-2.93-3.08-3.88-4.11l-0.27-0.27
		c-0.06-0.12-0.12-0.2-0.18-0.23c-0.06-0.03-0.12-0.08-0.18-0.14c-0.06-0.12-0.12-0.19-0.18-0.23c-0.06-0.03-0.12-0.08-0.18-0.14
		c-1.37-1.53-2.05-2.75-2.05-3.66c0-1.04,0.68-2.19,2.05-3.47l15.44-15.06c1.25-0.91,2.26-1.37,3.03-1.37c0.53,0,1.1,0.18,1.69,0.55
		C-758.01,728.09-757.3,728.64-756.46,729.37z"/>
	<path d="M-618.12,641.24c0.06-0.37,0.25-0.76,0.58-1.19c0.33-0.43,0.73-0.82,1.21-1.19c0.47-0.37,0.98-0.65,1.51-0.87
		c0.53-0.21,1.04-0.32,1.52-0.32h22.85c1.01,0,1.88,0.32,2.59,0.96c0.71,0.63,1.25,1.2,1.61,1.69l2.23,5.2l46.86,123.52
		c0.47,1.21,0.38,2.2-0.27,2.96c-0.66,0.76-1.79,1.14-3.39,1.14h-25.62c-1.37,0-2.42-0.26-3.17-0.77c-0.75-0.52-1.33-1.39-1.74-2.6
		c-1.19-3.1-2.36-6.19-3.49-9.26c-1.13-3.07-2.26-6.16-3.39-9.26h-47.39c-1.13,3.1-2.28,6.19-3.44,9.26
		c-1.16,3.07-2.31,6.16-3.44,9.26c-0.77,2.25-2.29,3.37-4.55,3.37h-26.33c-1.13,0-2.07-0.31-2.81-0.91
		c-0.74-0.61-0.87-1.52-0.4-2.73L-618.12,641.24z M-601.88,680.29c-1.13,3.1-2.27,6.45-3.44,10.03c-1.16,3.59-2.31,7.21-3.44,10.86
		c-1.13,3.65-2.28,7.26-3.44,10.81c-1.16,3.56-2.31,6.89-3.44,9.99h27.4L-601.88,680.29z"/>
	<path d="M-519.05,641.7c0-1.1,0.32-2.04,0.98-2.83c0.66-0.79,1.64-1.19,2.95-1.19h29.19c0.83,0,1.69,0.21,2.59,0.63
		c0.89,0.43,1.66,1.16,2.32,2.19c7.56,12.47,15.06,24.75,22.5,36.86c7.43,12.1,14.96,24.39,22.58,36.86v-73.08
		c0.24-1.09,0.71-1.94,1.43-2.55c0.71-0.61,1.54-0.91,2.49-0.91h25.44c1.25,0,2.29,0.35,3.12,1.05c0.83,0.7,1.25,1.69,1.25,2.97
		v127.9c0,1.22-0.36,2.12-1.07,2.69c-0.71,0.58-1.7,0.87-2.95,0.87h-28.47c-0.77,0-1.46-0.27-2.05-0.82
		c-0.6-0.55-1.22-1.28-1.88-2.19c-7.91-13.37-15.74-26.6-23.47-39.68c-7.74-13.07-15.59-26.3-23.56-39.68v78.37
		c0,1.34-0.3,2.34-0.9,3.01c-0.59,0.67-1.66,1-3.21,1h-25.35c-1.37,0-2.37-0.38-2.99-1.14c-0.62-0.76-0.94-1.69-0.94-2.78V641.7z"/>
	<path d="M-377.85,641.69c0-1.21,0.37-2.18,1.12-2.91c0.74-0.73,1.77-1.09,3.08-1.09h103.62c1.12,0,2.09,0.33,2.9,1
		c0.81,0.67,1.21,1.68,1.21,3.01v18.43c0,0.49-0.02,0.95-0.04,1.37c-0.03,0.43-0.19,0.97-0.49,1.64l-64.62,78.73h61.32
		c1.12,0,2.08,0.33,2.86,1.01c0.77,0.67,1.16,1.7,1.16,3.1v22.71c0,1.04-0.37,2.04-1.11,3.01c-0.75,0.97-1.71,1.46-2.9,1.46h-103.62
		c-1.19,0-2.19-0.4-2.99-1.19c-0.81-0.79-1.21-1.89-1.21-3.29v-19.63c0-0.97,0.21-1.77,0.62-2.37l64.45-77.71h-61.14
		c-1.31,0-2.34-0.35-3.08-1.04c-0.75-0.7-1.12-1.84-1.12-3.41V641.69z"/>
</g>
<line class="st1" x1="-1343.3" y1="373.13" x2="-1343.3" y2="862.73"/>
<g>
	<g>
		<path d="M1538.7,255.4L877.49,715.56c-45.56-65.24-72.28-144.62-72.28-230.26c0-222.43,180.32-402.74,402.76-402.74
			C1344.94,82.57,1465.94,150.94,1538.7,255.4z"/>
		<path class="st0" d="M1376.99,361.58c-2.59,2.47-5.08,5.05-9.46,4.93c-12.3-0.3-24.61-0.1-36.93-0.1
			c-11.74,0-23.5-0.07-35.25,0.05c-3.05,0.03-5.72-0.59-8.33-2.1c-1.73-1.03-3.85-2.05-3.31-4.21c0.47-1.95,1.72-3.7,3.95-4.79
			c3.52-1.72,7.07-2.14,10.87-2.07c6.58,0.13,13.16,0.34,19.72-0.05c5.06-0.3,9.91,1.56,14.89,1.14c6.78-0.61,13.54-0.96,20.34-1.18
			c7.3-0.22,14.23,1.88,21.38,2.42C1377.19,355.79,1378.74,359.9,1376.99,361.58z"/>
		<path d="M1685.02,737.11c-1.95,6.65-6.66,11.34-11.76,15.55c-4.59,3.8-9.24,7.96-14.57,10.31c-5.8,2.54-11.2,6.06-17.65,7.57
			c-2.88,0.67-6.49,0.96-9.03,3.28c-0.2,0.19-0.49,0.49-0.67,0.45c-4.85-0.89-8.92,2.12-13.54,2.69
			c-9.37,1.14-18.64,2.73-28.13,1.93c-3.36,0-6.73-0.1-10.08,0.02c-8.36,0.25-16.22-2.46-24.31-3.77
			c-4.24-0.71-8.41-1.78-12.33-3.06c-5.55-1.83-11.37-2.98-16.67-5.5c-8.14-3.89-16.61-7.08-24.48-11.58
			c-7.74-4.42-15.39-9.05-23.45-12.82c-6.22-2.91-12.35-6.01-18.56-8.93c-4.36-2.05-8.48-4.91-13.04-6.17
			c-2.76-0.77-5.64-1.88-7.84-3.08c-3.31-1.8-6.91-1.87-10.23-3.1c-4.09-1.5-8.65-2.83-13.09-2.98c-10.57-0.39-21.23-0.89-31.71,0.2
			c-5.13,0.54-10.63,1.35-15.8,3.52c-3.33,1.38-7.42,1.73-11.15,2.47c-3.97,0.81-7.37,2.81-11.14,3.84
			c-4.71,1.3-9.15,3.11-13.61,5.06c-4.74,2.09-9.66,3.65-14.35,6.04c-6.26,3.2-12.84,5.85-19.03,9.24
			c-8.9,4.86-17.95,9.39-26.68,14.59c-3.95,2.36-8.97,3.55-13.41,5.33c-4.69,1.87-9.81,1.04-14.2,3.43
			c-1.33,0.72-2.68,0.69-4.07,0.69c-13.16,0-26.33-0.19-39.49,0.13c-3.03,0.08-4.88-1.92-7.4-2.62c-5.17-1.45-10.43-2.94-15.43-5.52
			c-5.35-2.74-10.94-5.4-16.71-7.54c-4.12-1.51-7.99-4.16-11.98-6.26c-4.56-2.41-9.03-4.98-13.43-7.71
			c-9.84-6.09-19.9-11.89-29.9-17.68c-6.24-3.62-12.55-7.91-19.9-9.57c-1.63-0.39-2.66-1.77-4.39-2.37
			c-17.01-6.11-34.57-6.9-52.36-6.34c-6.76,0.2-13.22,1.51-19.43,4.12c-0.79,0.34-1.7,0.56-2.34-0.15c-0.76-0.84,0.1-1.48,0.45-2.2
			c1.21-2.51,3.36-4.34,5.38-5.82c6.33-4.66,12.65-9.57,19.7-12.8c3.4-1.56,7.96-3.23,12.74-1.08c3.87,1.73,8.56,0.54,12.92,2.36
			c3.87,1.62,7.99,3.36,12.08,4.16c6.98,1.35,13.04,4.86,19.6,7.12c6.01,2.07,11.74,4.95,17.58,7.52c4.14,1.82,8.48,3.31,12.28,5.67
			c4.81,2.99,10.11,4.96,14.92,7.99c5.64,3.52,11.79,6.19,17.65,9.39c4.22,2.3,8.14,5.25,12.53,7.18c3.92,1.73,6.91,5.01,11.34,5.99
			c3.16,0.71,5.18,3.75,8.73,4.73c4.46,1.23,8.98,2.78,13.32,4.32c6.68,2.37,13.71,0.79,20.14,3.43c2.54,1.04,5.11,0.66,7.66-0.47
			c2.57-1.14,5.37-1.75,8.14-1.21c5.82,1.14,11.31-1.4,16.5-2.67c5.84-1.46,11.84-4.12,17.35-7.49c3.3-2,7.05-3.77,10.82-5.25
			c3.75-1.46,7.22-3.68,10.68-5.79c1.08-0.66,2.19-0.34,3.16-0.76c6.71-2.96,12.94-6.88,19.84-9.54c8.08-3.1,15.55-7.49,23.79-10.38
			c4.85-1.7,9.81-3.87,14.67-5.48c3.55-1.16,7.59-2.07,11.34-3.06c6.51-1.73,13.24-1.73,19.65-3.58c1.4-0.39,2.69-0.59,4.07-0.59
			c6.86-0.03,13.78,0.5,20.58-0.15c8.34-0.79,16.34,1.26,24.24,2.76c4.71,0.89,10.09,2.19,14.32,5.75c1.51,1.28,4.24,1.11,6.44,2.14
			c10.89,5.06,21.8,9.99,32.62,15.23c11,5.32,21.57,11.34,32.32,17.11c6.8,3.67,13.85,7.02,21.01,10.13
			c7.25,3.13,14.6,5.79,22.09,8.04c10.9,3.3,22.26,2.25,33.46,2.34c7.99,0.07,15.55-2.1,23.22-4c5.55-1.4,11.26-2.64,16.3-5.01
			c6.58-3.1,13.48-5.5,19.67-9.76c7.07-4.85,13.9-10.4,21.97-13.53c2.69-1.04,6.12-0.62,9.14-0.22
			C1686.3,733.61,1685.41,735.73,1685.02,737.11z"/>
		<path d="M1682.83,697.34c-2.56,3.63-4.37,7.92-8.56,10.41c-7.62,4.56-14.64,10.28-22.61,13.98c-5.59,2.59-11.41,5.13-17.16,7.47
			c-5.27,2.14-10.73,4.61-16.02,5.57c-6.81,1.24-13.61,4.04-20.86,2.74c-2.59-0.45-5.32-0.07-7.97-0.07
			c-9.96,1.53-19.77-0.49-29.29-2.52c-7.49-1.6-14.84-4.42-22.01-7.79c-8.18-3.82-15.93-8.48-24.36-11.89
			c-6.91-2.79-13.46-6.86-20.48-9.59c-7.34-2.84-14.15-6.76-21.2-10.11c-7.91-3.77-16.27-6.66-23.84-10.9
			c-5.96-3.31-12.33-5.7-18.51-7.69c-4.48-1.46-9.59-3.36-14.87-2.86c-4.95,0.47-10.23-1.58-14.74-0.64
			c-6.97,1.45-14.28-1.31-20.86,2.34c-0.69,0.39-1.6,0.5-2.41,0.52c-7.13,0-13.34,3.48-19.95,5.4c-5.3,1.55-10.68,3.21-15.53,5.75
			c-4.12,2.15-8.53,3.73-12.69,5.54c-3.82,1.65-7.55,3.75-11.54,5.08c-5.87,1.93-11.04,5.45-16.82,7.54
			c-4.85,1.73-9.17,4.66-14.3,5.79c-2.52,0.56-4.9,2.04-7.18,3.36c-2.32,1.38-5.01,1.46-7.49,2.69c-6.14,3.06-13.02,4.96-19.6,6.29
			c-5.18,1.06-10.35,3.79-16.02,2.81c-5.3-0.89-10.46,0.91-15.73,1.14c-8.13,0.37-16.22-0.32-24.11-1.48
			c-5.84-0.84-11.74-2.76-17.38-5.32c-4-1.82-8.11-3.68-12-5.64c-5.42-2.73-10.77-5.74-16.1-8.7c-5.54-3.06-10.94-6.33-16.45-9.39
			c-6.85-3.79-13.7-7.52-20.63-11.12c-9.09-4.73-18.15-9.54-27.44-13.85c-3.97-1.83-8.38-2.81-12.5-4.42
			c-2.07-0.82-2.24-2.69-3.63-3.7c1.09-0.94,1.68-2.32,2.99-3.13c2.84-1.77,5.59-3.7,8.28-5.69c3.43-2.52,5.23,1.4,7.72,2.14
			c6.43,1.92,12.15,5.69,18.42,8.19c6.17,2.46,11.88,6.07,17.8,9.17c6.53,3.4,13.09,6.76,19.58,10.23c4.48,2.37,8.7,5.28,13.32,7.25
			c6.76,2.88,12.62,7.3,19.18,10.55c4.93,2.42,9.84,4.85,14.86,7.1c2.24,1.03,4.58,0.93,6.8,1.48c12.35,3.11,24.9,1.73,37.37,2.02
			c5.3,0.12,11.04-0.93,15.31-2.69c7.27-3.01,14.67-6.29,21.82-9.77c9.05-4.41,17.8-9.57,27.32-13.07c7.99-2.94,15.18-7.76,22.93-11
			c6.06-2.54,12.32-5.06,18.49-7.47c5.7-2.24,11.66-3.5,17.38-5.62c3.94-1.46,8.61-2.02,12.89-2.46c10.15-1.01,20.19-3.8,30.55-2.52
			c2.76,0.34,5.6,0.17,8.4,0.03c8.21-0.39,15.83,1.92,23.71,3.99c6.78,1.8,12.74,5.32,19.4,7.25c3.5,1.01,6.95,3.15,10.41,4.76
			c4.37,2.05,8.88,3.85,13.27,5.87c3.3,1.51,6.71,3.01,9.72,4.85c3.95,2.39,8.29,3.77,12.25,6.01
			c10.23,5.82,20.91,10.78,31.11,16.67c5.96,3.45,12.4,5.87,19.16,7.81c4.14,1.19,8.82,0.67,12.55,3.31
			c0.54,0.37,1.31,0.64,1.95,0.59c10.75-0.82,21.16,2.81,31.9,2.29c7.6-0.37,15.26-1.24,22.58-2.67c6.28-1.23,12.43-4.54,18.49-7.49
			c9.98-4.85,17.68-12.84,27.59-17.45c4.07-1.88,8.24-3.58,12.48-5.01c1.43-0.49,3.89-0.94,4.69,0.49
			C1683.91,692.26,1684.06,695.61,1682.83,697.34z"/>
		<path d="M1680.92,658.07c-0.22,3.95-4.17,4.63-6.46,6.56c-9.69,8.23-20.48,14.81-32.3,19.5c-5.79,2.29-11.66,4.24-17.82,5.75
			c-9.54,2.32-18.89,4.49-28.75,3.9c-2.1,0-4.21-0.02-6.31,0c-7.62,0.12-14.89-1.82-22.11-3.99c-0.4-0.13-0.86-0.39-1.21-0.29
			c-5.1,1.48-9.39-2.02-14.12-2.74c-3.03-0.47-7.05-0.67-10.09-3.35c-1.68-1.48-4.85-1.38-7.34-2.17
			c-10.31-3.26-19.79-8.36-29.61-12.67c-8.95-3.94-17.36-8.9-26.01-13.41c-9.98-5.18-19.48-11.41-29.93-15.5
			c-5.15-2.02-10.63-3.75-16.12-5.2c-4.05-1.06-8.31-0.66-11.93-2.04c-10.73-4.05-21.7-1.78-32.42-1.5
			c-5.8,0.17-12.21,0.89-18.09,3.47c-3.05,1.33-6.81,1.06-10.21,2.47c-5.23,2.17-10.78,3.31-15.9,6.12
			c-5.4,2.96-11.54,4.54-17.31,6.81c-5.94,2.32-11.89,4.63-17.75,7.17c-5.74,2.51-11.39,5.2-17.01,7.97
			c-6.65,3.26-13.34,6.46-19.75,10.14c-2.78,1.6-5.87,2.1-8.7,3.11c-12.21,4.34-25.08,5.79-38.04,5.65
			c-7.35-0.07-15.01,0.1-21.96-1.45c-7.6-1.68-15.41-3.06-23.02-5.3c-9.09-2.68-17.85-6.11-26.46-9.76
			c-7.45-3.16-14.74-7.03-21.43-11.81c-2.79-1.99-6.06-3.36-8.66-5.54c-3.82-3.2-8.83-4.83-11.86-9c-2.66-3.65-1.3-6.26,2.56-8.51
			c5.8-3.36,9.98-1.53,14.65,2.17c3.89,3.06,8.5,5.23,12.85,7.69c8.06,4.58,16.03,9.29,24.26,13.53c5.5,2.83,11.34,5,17.06,7.37
			c6.29,2.59,13.16,3.06,19.53,4.79c10.75,2.93,21.37,1.75,31.83,1.21c5.23-0.29,11.12-1.46,16.66-3.26
			c4.95-1.6,10.26-2.91,14.79-5.22c6.46-3.28,13.48-5.4,19.52-9.71c2.88-2.05,6.29-3.99,9.72-5.11c4.05-1.33,7.34-3.89,11.15-5.48
			c5.97-2.54,11.68-5.64,17.73-8.08c6.07-2.46,12.18-4.85,18.36-7.02c4.22-1.5,9.22-2.12,12.74-4.11c4.59-2.57,9.62-0.2,14-3.48
			c2.57-1.93,7.18-0.47,10.94-1.35c11.68-2.76,23.64-0.57,35.45-1.28c8.01-0.49,15.36,2.17,23,3.9c8.23,1.87,15.55,5.47,22.49,9.56
			c7.44,4.36,15.12,8.4,22.75,12.16c9.54,4.69,19.13,9.46,28.77,14.03c6.71,3.2,13.34,7.08,20.12,9.81
			c6.12,2.46,12.1,5.85,18.67,7.17c1.97,0.4,3.2,1.55,4.73,2.36c3.53,1.85,7.66,1.24,11.04,2.42c10.33,3.58,20.78,1.82,31.09,1.67
			c6.48-0.08,13.09-1.9,19.58-3.5c3.63-0.89,7.39-2,10.9-3.08c5.92-1.78,11.74-4.21,17.28-7.17c7.94-4.26,15.43-9.14,22.7-14.4
			c2.66-1.92,5.91-2.22,8.9-3.15c1.68-0.52,2.99,0.07,2.93,2.29C1680.88,652.2,1681.08,655.15,1680.92,658.07z"/>
		<path d="M1685.12,602.69c-3.63,7.91-8.29,15.31-15.34,20.39c-7.2,5.2-14.22,10.73-22.65,14.32c-5.7,2.42-11.17,4.9-17.24,6.51
			c-5.96,1.6-11.76,3.31-17.92,4.31c-4.31,0.69-8.43,2.51-12.03,1.92c-4.68,0.05-8.36,0.47-12.1,0.89
			c-6.6,0.76-13.32-0.64-19.89-1.31c-3.35-0.35-7.35-1.46-10.89-2.93c-3.5-1.46-7.57-1.68-10.94-3.36
			c-4.42-2.2-9.19-3.48-13.59-5.72c-7.87-4.02-16.07-7.4-23.77-11.69c-10.62-5.91-21.6-11.05-32.34-16.71
			c-6.86-3.62-13.81-7.39-21.47-9.67c-3.95-1.18-7.86-2.88-11.78-4.32c-4.64-1.75-9.52-2.67-14.03-4.39
			c-9.07-3.43-18.47-3.89-27.81-5.11c-9.03-1.21-17.77,1.36-26.63,2.69c-6.21,0.93-11.69,3.55-17.58,5.08
			c-4.56,1.19-8.8,3.63-13.21,5.43c-4.04,1.65-8.06,3.26-11.98,5.2c-5.4,2.66-11.1,4.73-16.62,7.15
			c-7.79,3.42-15.5,7.03-23.32,10.35c-6.16,2.62-12.2,5.59-18.39,8.01c-7.91,3.11-15.55,6.86-23.55,9.81
			c-6.81,2.52-13.44,1.62-20.16,1.87c-7.13,0.27-14.33-0.5-21.4,0.24c-6.63,0.67-12.94-1.09-18.73-2.83
			c-10.97-3.26-21.91-7.35-31.61-13.91c-4.11-2.78-8.48-5.18-12.89-7.42c-2.61-1.33-1.83-4.48-1.21-4.71c3.48-1.38,5-5.15,8.66-6.36
			c4.96-1.63,8.28,1.43,12.15,3.23c7.72,3.58,15.21,7.55,23.37,10.35c6.26,2.15,12.84,3.15,18.96,5.64c0.99,0.4,2.2,0.61,3.26,0.47
			c5.52-0.64,11.04,1.82,16.37,0.66c5.97-1.31,11.98-0.15,18.14-2.19c6.61-2.19,12.64-5.75,19.48-7.39
			c3.57-0.86,6.98-3.25,10.38-5.03c2.42-1.26,5.06-1.8,7.49-3.13c6.06-3.3,12.84-5.05,18.96-8.48c5.43-3.06,11.81-4.39,17.36-7.25
			c4.93-2.56,10.14-4.42,15.06-6.95c6.78-3.5,13.95-6.01,21.11-8.6c4.21-1.51,8.71-2.27,12.82-3.35c5.23-1.36,10.94-2.81,16.64-2.78
			c6.58,0.03,13.17,0.15,19.75-0.03c9.88-0.27,19.28,2.22,28.89,3.92c6.16,1.11,11.83,3.33,17.6,5.17
			c5.35,1.68,10.67,4.09,15.66,6.98c3.89,2.25,8.34,3.55,12.16,5.91c3.62,2.25,7.52,4.22,11.26,5.89c4.95,2.2,9.88,4.42,14.57,7.08
			c6.58,3.72,13.44,6.88,20.17,10.26c5.05,2.54,9.93,5.57,15.43,7.49c4.29,1.5,8.41,3.8,12.92,4.9c5.25,1.3,10.52,2.62,15.81,3.75
			c13.29,2.88,26.63,2.17,39.91,1.72c7.05-0.24,13.98-2.52,20.79-5.54c5.08-2.24,9.76-5.18,14.82-7.39c3.4-1.48,6.34-3.89,9.3-6.21
			c6.61-5.15,13.24-10.35,20.27-14.89c2.32-1.51,5.74-1.51,8.58-2.64C1683.93,597.25,1686.05,600.7,1685.12,602.69z"/>
		<path d="M1681.87,561.07c-0.74,7.74-5.47,12.9-11.32,17.28c-4.53,3.38-8.8,7.32-13.8,9.77c-5.15,2.52-9.72,5.96-15.41,7.84
			c-5.01,1.68-10.33,3.1-15.21,5.55c-3.03,1.51-6.88,2.02-10.15,2.44c-9.42,1.24-18.76,4.41-28.47,2.54c-2.94,0-5.94-0.35-8.82,0.08
			c-7.08,1.08-13.81-1.6-20.37-2.88c-6.66-1.28-13.54-4.24-20.04-7.49c-5.05-2.51-10.21-5.22-15.41-7.57
			c-5.03-2.29-10.09-4.98-14.99-7.79c-4.88-2.81-10.46-4.59-15.65-7.05c-6.49-3.08-12.77-6.49-19.53-9.09
			c-3.5-1.35-7.03-4.11-10.52-5.37c-5.85-2.1-10.7-6.26-16.91-7.52c-3.01-0.61-5.87-2.14-8.68-3.52c-2.81-1.4-6.36-2.14-8.83-2.34
			c-5.27-0.44-9.91-3.06-15.29-2.88c-11.2,0.4-22.44,0.56-33.61-0.05c-5.91-0.32-11.36,1.56-16.64,2.86
			c-4.61,1.13-9.54,3.18-14.13,5.57c-6.14,3.2-12.64,5.89-18.74,9.22c-6.7,3.67-13.66,6.86-20.46,10.26
			c-5.47,2.74-11.26,5.33-17.11,7.52c-4.37,1.63-8.92,3.79-13.29,5.57c-4.66,1.9-9.57,3.72-14.54,5.17
			c-3.89,1.14-8.41,0.79-11.69,3.89c-0.17,0.17-0.54,0.25-0.77,0.22c-6.07-0.96-11.39,3.35-17.56,2.34
			c-5.28-0.86-10.18,3.25-15.48,2.07c-7.89-1.75-16.12-1.26-23.89-3.94c-2.93-0.99-6.11-1.11-9.15-2.29
			c-3.85-1.48-2.81-4.07-1.53-5.77c2.36-3.1,5.59-5.13,9.88-5.48c13.27-1.14,26.26,4.19,39.42,2.09c8.53-1.36,17.14-2.22,25.47-5.65
			c13.21-5.42,25.37-12.82,38.31-18.74c6.46-2.96,13.04-6.17,19.45-9.52c4.19-2.2,8.75-4.22,13.59-5.55
			c3.89-1.08,7.74-3.35,11.69-4.86c5.3-2.04,10.72-3.73,16.03-5.7c4.85-1.8,10.31-1.31,14.87-4.09c0.24-0.13,0.54-0.2,0.81-0.19
			c7.79,0.47,15.09-3.57,23.03-2.37c3.84,0.57,7.87,0.5,11.74,0.02c8.04-1.06,15.76,1.18,23.39,2.62c5.8,1.11,11.56,3.73,16.96,6.75
			c4.04,2.27,8.48,3.95,12.5,6.19c4.49,2.51,9.12,4.71,13.73,6.91c4.29,2.05,8.53,4.27,12.8,6.33c5.97,2.86,11.88,6.09,17.87,9.02
			c5.64,2.76,11.36,5.48,16.86,8.41c7.13,3.79,14.84,6.07,21.92,9.99c4.36,2.41,9.76,3.85,14.96,5.11
			c18.24,4.41,36.69,1.16,55.02,1.75c4.88,0.15,10.13-2.19,14.72-4.37c6.8-3.2,13.61-6.43,20.02-10.43
			c6.06-3.79,11.41-8.51,17.21-12.6c3.89-2.73,8.68-3.65,13.56-2.83C1681.05,558.76,1682.03,559.52,1681.87,561.07z"/>
		<path d="M1709.4,349.63c0,3.23-0.03,5.32,0,7.42c0.12,6.65-2.47,12.64-4,18.93c-1.83,7.6-5.99,13.83-9.59,20.36
			c-3.94,7.15-10.28,12.47-16.02,18.22c-7.13,7.15-15.81,12.25-24.55,16.64c-4.74,2.37-10.35,4.27-16.07,5.5
			c-14.27,3.06-28.53,5-43.02,6.44c-6.07,0.59-11.79-0.17-17.62-0.59c-2.49-0.17-5.37-2.17-7.13-4.17
			c-3.63-4.09-7.45-8.48-6.09-14.7c1.13-5.06,4.21-8.82,8.68-11.36c5.38-3.06,11.58-3.21,17.45-4.34c6.16-1.19,12.3-2.54,18.46-3.63
			c4.04-0.72,7.69-2.54,11.74-3.15c3.2-0.49,6.24-2.07,9.3-3.31c3.79-1.55,7.44-3.47,11.24-4.88c4.88-1.8,8.34-5.52,12.55-8.18
			c2.56-1.62,5.28-3.6,7.15-5.79c3.03-3.55,6.9-7.05,7.86-11.71c0.47-2.3,1.95-3.75,2.76-5.55c3.01-6.76,1.55-13.71,1.99-20.58
			c0.4-6.34-2.32-11.93-3.77-17.85c-1.63-6.65-5.42-12.1-7.69-18.32c-1.93-5.32-6.44-9.84-11.74-12.89
			c-7.84-4.48-16.35-6.33-25.3-6.49c-2.1-0.05-4.26,0.27-6.29-0.05c-9.02-1.41-17.51,2.36-26.41,2.49
			c-3.11,0.05-6.31,2.51-9.25,4.21c-5.47,3.16-10.77,6.6-16.18,9.86c-7.45,4.46-14.35,9.83-21.47,14.74
			c-3.89,2.71-8.23,5.33-11.83,8.83c-2.99,2.91-6.85,5.13-10.3,7.69c-3.82,2.83-7.69,5.62-11.63,8.29
			c-5.74,3.9-11.34,8.11-17.43,11.37c-2.74,1.46-5.23,3.63-7.54,5.27c-3.45,2.42-7.45,4.48-10.58,7.69
			c-2.78,2.88-6.8,4.53-10.04,7.02c-5.7,4.37-11.95,7.97-17.78,12.16c-5.69,4.11-11.12,8.65-17.45,11.95
			c-3.7,1.92-7.28,4.46-10.33,7.2c-5.72,5.13-12.72,8.18-18.66,12.77c-6.21,4.81-12.69,9.24-19.06,13.71
			c-5.89,4.12-11.68,8.48-17.93,12.16c-3.47,2.04-6.63,4.86-10.11,7.07c-8.5,5.38-15.95,12.25-24.98,16.94
			c-3.33,1.73-6.33,4.46-9.4,6.78c-6.86,5.2-14.25,9.64-21.03,14.89c-5.55,4.29-11.51,8.03-17.21,12.03
			c-5.5,3.85-10.73,8.24-16.82,11.36c-3.5,1.8-6.43,4.69-9.67,6.98c-3.82,2.68-7.74,5.22-11.58,7.86c-3.6,2.49-7.17,5.01-10.72,7.59
			c-3.3,2.39-6.61,4.73-10.16,6.75c-3.62,2.05-7,4.69-10.13,7.23c-6.49,5.28-14.18,8.72-20.41,14.2c-3.31,2.91-7.08,5.35-10.73,7.55
			c-3.13,1.88-5.45,5.03-9.4,5.99c-2.59,0.64-4.68,3.33-6.86,5.1c-3.95,3.16-8.24,5.92-12.26,8.93c-5,3.75-10.31,7.27-15.65,10.67
			c-4.36,2.79-8.36,6.14-12.65,8.93c-5.97,3.89-11.44,8.51-17.72,12c-3.57,1.99-6.28,5.33-10.16,7.1c-3.47,1.6-6.02,4.71-9.62,6.21
			c-1.11,0.45-2.22,1.23-3.05,2.12c-5.4,5.97-12.87,9.24-18.99,14.33c-5.15,4.29-11.63,7.6-17.41,11.47
			c-5.65,3.77-11.2,7.71-16.72,11.66c-4.54,3.25-9.44,5.96-13.54,9.88c-2,1.9-4.78,2.96-7.13,4.61
			c-10.06,7.07-20.22,13.95-30.12,21.3c-5.15,3.82-10.9,7.28-16.45,10.8c-6.34,4.02-11.83,9.44-18.3,13.17
			c-5.55,3.18-10.28,7.37-15.6,10.78c-1.63,1.04-3.2,0.77-4.81,0.84c-2.39,0.08-4.78,0.02-7.15,0.02c-8.56,0-15.41-4.96-18.46-12.97
			c-2.37-6.28,0.22-11.86,3.11-16.71c3.3-5.55,8.55-10.04,13.85-13.63c4.32-2.94,8.29-6.44,12.87-9.07c4.02-2.3,7.96-4.9,11.54-7.84
			c3.03-2.51,6.6-4.14,9.66-6.63c3.5-2.84,7.89-4.61,11.41-7.45c3.21-2.59,6.86-4.54,9.86-7.27c1.33-1.21,2.86-1.4,4.17-2.34
			c9.59-6.91,19.36-13.56,29.04-20.34c6.73-4.71,13.81-8.92,20.41-13.75c5.59-4.11,11.59-7.55,17.06-11.78
			c7.18-5.54,15.06-10.06,22.29-15.53c7.6-5.74,15.9-10.52,23.64-16.07c6.43-4.59,13.27-8.55,19.63-13.19
			c5.8-4.24,11.58-8.7,17.56-12.55c5.99-3.84,11.71-8.16,17.87-11.81c3.53-2.1,7.54-4.29,10.18-7.82c1.99-2.66,5.3-3.18,7.84-4.96
			c6.9-4.85,13.81-9.71,20.76-14.42c5.03-3.4,10.08-7.05,15.51-10.01c4.32-2.37,8.08-5.8,12.16-8.65
			c5.77-4.02,11.63-7.91,17.43-11.88c10.57-7.27,21.11-14.57,31.68-21.84c8.95-6.16,17.88-12.32,26.87-18.42
			c5.69-3.87,11.47-7.55,17.13-11.47c5.82-4,11.54-8.19,17.28-12.3c4.98-3.58,9.96-7.45,15.12-10.41
			c7.12-4.11,12.97-9.83,20.12-13.69c6.12-3.33,11.54-7.76,17.5-11.39c3.15-1.92,6.14-4.59,9.44-6.56
			c5.42-3.26,10.13-7.54,15.7-10.6c3.77-2.07,6.98-5.03,10.53-7.49c3.89-2.69,7.82-5.32,11.76-7.96
			c8.53-5.74,16.89-11.74,25.27-17.7c2.73-1.93,5.48-3.85,8.16-5.84c7.45-5.47,15.76-9.77,23.12-15.36
			c5.67-4.31,11.66-8.18,17.4-12.35c3.79-2.74,8.19-4.78,12.05-7.5c6.36-4.51,12.47-9.32,19.26-13.24c2.98-1.7,5.89-3.92,8.6-6.21
			c9.1-7.74,19.36-13.86,30-18.99c6.36-3.08,13.41-5.23,20.19-7.62c12.6-4.42,25.35-4.21,38.19-3.85c4.49,0.12,9,1.77,13.24,3.55
			c2.78,1.16,5.75,1.13,8.65,2.62c5.43,2.81,11.36,4.66,16.13,8.73c2.62,2.24,5.75,3.62,8.45,5.99c6.07,5.38,11.84,11.09,16.96,17.3
			c4.19,5.1,8.36,10.57,10.7,16.84c1.53,4.11,3.95,7.69,5.3,12C1706.96,327.21,1710.27,338.56,1709.4,349.63z"/>
		<path class="st0" d="M1364.03,327.88c-2.15-3.45-2.25-7.47-4.16-10.94c-2.22-4.05-2.86-8.87-4.74-12.9
			c-3.15-6.7-5.92-13.53-8.75-20.34c-0.84-2.05-1.04-4.59-2.17-6.14c-4.17-5.67-4.96-12.7-8.23-18.73
			c-2.59-4.78-4.69-10.01-5.99-15.12c-1.11-4.39-4.31-7.4-5.28-11.69c-0.66-2.93-4.63-4.21-6.06-2.32c-2.12,2.84-4.9,5.01-7.15,7.71
			c-7.55,9.02-14.06,18.93-23.03,26.77c-3.36,2.94-5.64,2.54-7.13-1.58c-1.58-4.44-2.98-9.1-4.95-13.19
			c-3.01-6.26-4.68-13.09-8.26-19.01c-3.52-5.84-1.11-12.33-2.52-18.37c-0.25-1.11,0.59-2.46,2.44-2.76
			c6.65-1.03,13.41,0.17,18.94,2.78c6.75,3.18,13.64,6.19,20.34,9.56c3.9,1.97,8.38,1.11,10.99-2.29c2.71-3.55,5.18-7.2,7.1-11.42
			c2.34-5.15,4.32-10.01,4-15.7c-0.1-1.63-0.37-3.33,0.57-4.93c0.89-1.51-0.39-2.71-1.13-3.7c-0.67-0.89-2.36-0.86-3.1-0.2
			c-2.61,2.3-6.22,3.13-8.36,6.22c-2,2.89-6.16,3.16-8.36,6.21c-0.67,0.94-2.51,0.69-3.89-0.82c-4.19-4.58-5.2-10.72-8.41-15.8
			c-2.54-4-3.21-4.32-6.86-1.28c-3.7,3.1-5.91,8.58-12.47,7.52c-4.41-0.71-8.98,1.35-9.99-6.29c-0.71-5.37-2.61-11.26-5.85-16.07
			c-2.05-3.03-1.88-6.65-3.75-9.79c-3.82-6.43,0.15-14.6,7.37-15.93c2.34-0.44,2.93-1.63,3.03-3.7c0.12-2.14-0.67-2.73-2.81-3.03
			c-4.12-0.59-8.13-1.55-8.34-7.22c-0.05-1.45-1.72-3.31-3.89-3.55c-2.36-0.25-3.95,1.26-4.48,3.08c-1.4,5.03-5.38,6.53-9.62,7.79
			c-1.78,0.54-3.63,1.99-3.28,3.18c0.4,1.36,1.56,3.47,3.9,3.4c0.69-0.02,1.4-0.03,2.09,0.02c4.74,0.35,6.34,2.59,6.88,7.25
			c0.91,8.01-2.94,14.64-5.33,21.75c-1.87,5.54-5.25,10.55-5.77,16.57c-0.05,0.62-0.52,1.33-0.99,1.75
			c-1.56,1.38-10.73,0.89-12.18-0.74c-2.83-3.16-6.09-5.42-10.25-6.53c-1.62-0.44-1.83-0.67-2.84,1.16
			c-2.42,4.46-1.33,9.71-3.95,14.08c-0.89,1.5-0.08,4.07-3.18,3.62c-1.9-0.27-3.89,0.42-5.77-0.52c-6.01-2.98-11.31-7.17-17.51-9.88
			c-4.21-1.83-6.16-0.64-6.63,3.99c-0.77,7.84,2.3,14.28,6.54,20.39c3.11,4.48,7.4,7.87,11.32,11.54c2.76,2.59,2.52,4.73,0.37,7
			c-3.7,3.89-6.73,8.31-9.44,12.79c-3.89,6.41-8.24,12.53-11.59,19.42c-2.42,5-5.4,10.04-7.69,15.12
			c-2.88,6.34-5.99,12.77-7.34,19.87c-0.5,2.66-1.38,5.55-2.39,8.21c-1.9,5-2.98,10.18-3.67,15.41c-0.35,2.61-0.42,5.1-1.62,7.6
			c-2.71,5.69-0.69,8.73,5.4,8.73c1.41,0,2.81,0.03,4.21-0.02c3.13-0.1,7.27-3.95,7.13-7.08c-0.2-4.51,2.02-8.43,3.11-12.53
			c1.09-4.05,1.67-8.29,3.13-12.35c0.86-2.41,2.83-4.79,2.54-7.59c-0.37-3.77,1.73-6.95,2.83-10.15c1.77-5.15,3.82-10.33,6.23-15.29
			c2.19-4.49,3.97-9.35,8.4-12.3c2.54-1.7,5.42-5.64,8.19-2.76c2.56,2.66,5,6.04,6.83,9.32c2.69,4.79,6.58,9.03,7.94,14.54
			c1.03,4.16,3.92,7.91,3.25,12.4c-0.74,5.08-3.31,9.64-5.18,14.3c-3.03,7.54-6.86,14.72-7.94,22.91c-0.29,2.17-3.75,4.26-1.28,6.16
			c1.53,1.18,4.59,0.37,6.95,0.42c0.99,0.03,1.99-0.08,2.94,0.03c2.02,0.2,3.48-0.99,3.99-2.47c0.74-2.2,1.97-4.26,2.57-6.39
			c2.2-7.89,3.26-16.08,6.63-23.67c0.52-1.18,0.4-2.52,2.14-2.34c2.15,0.22,4.95-1.13,6.31,0.84c2,2.88,3.23,6.29,4.73,9.52
			c2.32,5.01,4.96,9.79,9.77,12.89c1.72,1.09,3.95,1.46,5.38-0.08c3.95-4.32,8.8-7.81,11.39-13.48c1.31-2.84,4.39-4.91,6.8-7.18
			c0.89-0.84,1.23,0.3,1.77,0.93c2.93,3.35,4.79,7.27,6.88,11.15c2.52,4.69,3.92,9.74,6.09,14.5c1.06,2.29,2.37,3.63,4.98,3.6
			c4.48-0.05,8.98-0.22,13.44,0.05c3.82,0.22,4.26-2.24,3.23-4.46c-2.52-5.43-4.07-11.32-6.76-16.56
			c-3.38-6.6-5.27-13.66-8.08-20.41c-0.84-2.02-0.98-5.22,0.08-6.97c4.74-7.82,8.31-16.44,15.04-22.98c2.19-2.12,4.54-3.87,7.5-2.78
			c3.18,1.18,4.93,4.26,5.32,7.35c0.42,3.47,1.83,6.73,3.06,9.59c2.51,5.82,3.85,12.01,5.48,17.92c1.73,6.21,4.44,12.23,5.2,18.83
			c0.24,2,0.81,5.17,2.3,6.75c2.56,2.73,2.36,6.34,3.42,9.32c1.21,3.42,2.25,4.58,5.55,4.36c1.95-0.13,3.92-0.03,5.87-0.03
			c2.24,0,4.49,0.02,6.73,0C1364.12,333.65,1366.05,331.13,1364.03,327.88z M1231.17,248.4c-1.28,2.29-2.54,4.59-3.97,6.76
			c-1.72,2.59-5.17,2.86-7.08,0.64c-2.88-3.35-6.33-6.43-8.34-10.25c-3.35-6.34-9.05-10.48-13.32-15.9
			c-1.95-2.49-3.11-4.53,0.61-6.38c7.71-3.85,15.19-8.28,23.15-11.51c5.06-2.07,10.8-2.61,16.29-3.55c3.84-0.66,5.7,1.14,5.74,4.93
			c0.02,1.82,0,3.63,0,6.46c1.19,5.87-2.32,10.85-5.84,16.32C1235.83,239.91,1233.53,244.21,1231.17,248.4z M1255.45,294.4
			c-6.14,0.56-11.54-1.65-14.32-7.12c-3.79-7.44-5.15-15.53-2.29-23.82c1.14-3.35,1.97-6.81,3.2-10.11
			c1.24-3.33,2.61-6.65,4.27-9.77c1.38-2.59,7.81-2.36,9.07,0.35c4.04,8.61,9.47,16.61,12.28,25.71c0.99,3.16,1.95,6.44,2.67,9.71
			C1272.17,287.69,1264.3,296.2,1255.45,294.4z"/>
		<path class="st0" d="M1121.54,398.64c-0.62,5.4-2.2,11.12-5.4,16.15c-1.97,3.08-3.35,6.63-5.1,9.94
			c-2.47,4.63-5.23,8.97-8.5,13.12c-2.69,3.45-5.32,6.83-8.73,9.56c-8.16,6.46-16.05,13.16-25.83,17.41
			c-4.31,1.88-8.72,4-13.07,5.64c-3.05,1.14-6.66,2.15-9.66,3.31c-4.19,1.63-8.83,2.66-12.8,3.31c-6.04,0.99-12.06,3.06-18.36,2.86
			c-6.34-0.2-7.96,1.51-7.96,7.6c0,21.16,0.08,42.31-0.07,63.46c-0.03,4.02,1.19,5.87,5.3,5.25c8.56-1.31,16.64,2.29,25.1,2.74
			c4.16,0.22,9.32,1.04,13.68,3.63c3.52,2.1,1.28,4.63,1.73,6.88c0.5,2.41-1.68,2.02-3.13,2.05c-7.1,0.15-13.75-2.24-20.56-3.7
			c-0.67-0.13-1.31-0.67-1.93-0.64c-10.46,0.45-20.74-2.39-31.11-1.99c-8.97,0.35-18,1.28-26.87,3.7c-4.09,1.13-8.18,3.68-12.8,2.64
			c-1.36-0.3-3.53,0.77-3.77-1.48c-0.24-2.27-1.3-5.48,1.11-6.58c2.29-1.03,4.71-2.15,7.03-3.1c4.37-1.78,9.14-1.38,13.38-3.43
			c3.53-1.72,7.44-0.42,11.15-0.72c1.68-0.13,3.36,0.05,5.05-0.03c3.7-0.22,5.77-2.37,5.79-6.01c0.02-18.62,0.02-37.27-0.02-55.89
			c0-4.46-2.62-8.45-2.29-12.99c0.05-0.62-0.56-0.77-1.18-0.84c-1.23-0.13-2.51-0.76-3.67-0.56c-7.5,1.26-14.7-1.3-21.75-2.69
			c-5.67-1.11-11.86-2.25-17.16-5.55c-2.09-1.3-4.79-1.23-7.27-2.41c-9.14-4.37-17.82-9.19-26.13-15.14
			c-8.18-5.85-14.65-13.01-20.54-20.73c-2.93-3.84-5.11-8.5-7.27-13.02c-1.95-4.11-3.57-8.36-5.55-12.45
			c-1.23-2.54-2.42-5.59-2.59-8.01c-0.49-7.15-4.02-13.95-2.54-21.28c0.24-1.24-0.71-3.3,1.36-3.38c2.39-0.1,5.7-1.48,7.03,0.81
			c1.26,2.17,2.99,4.46,2.62,7.64c-0.71,6.02,2.29,11.47,3.45,17.21c1.03,5,2.76,9.69,5.23,14.15c5.57,10.06,12.28,19.3,20.91,26.9
			c9.51,8.36,20.56,14.55,31.92,19.94c2.73,1.28,5.96,2.84,9.42,2.71c2.61-0.1,4.81,1.7,7.2,2.47c5.15,1.65,10.68,1.08,15.65,3.38
			c3.38,1.56,7.25,1.01,10.7,0.4c2.34-0.44,1.97-3.94,2.27-5.97c0.56-3.68,0.5-7.57,0.05-11.31c-0.29-2.37-1.99-4.71-4.91-4.21
			c-5.43,0.93-10.5-1.48-15.23-2.74c-9.1-2.44-18.24-5.59-26.58-10.45c-8.24-4.81-15.98-10.36-21.64-17.97
			c-3.31-4.46-6.19-9.39-8.34-14.82c-3.23-8.14-4.31-16.25-4.09-24.82c0.08-2.74,0.86-3.89,3.62-3.52c0.96,0.13,1.97,0.12,2.94,0.02
			c3.26-0.34,5.01,1.14,4.37,4.34c-1.16,5.77,0.89,11.39,2.76,16.13c2.51,6.29,5.6,12.75,10.46,18.1
			c6.56,7.22,14.17,13.22,22.6,17.56c4.64,2.39,10.16,4.22,15.75,5.27c4.48,0.82,8.78,2.2,13.43,1.93c1.77-0.1,2.61-0.35,2.93-2.47
			c0.56-3.77,2.41-7.23,2.15-11.29c-0.34-5.15-2.42-7.5-7.72-8.13c-12.95-1.53-23.15-8.4-31.11-18.14
			c-2.54-3.11-4.66-7.45-5.27-12.2c-0.3-2.47-1.75-4.93-2-7.76c-0.25-2.89,1.68-4.48,3.21-5.15c1.99-0.87,4.64-0.27,7.02-0.17
			c0.29,0.02,0.76,0.86,0.76,1.33c0.02,7.13,3.68,13.09,7.17,18.69c3.72,6.01,8.61,11.46,16.52,12.58c2.2,0.3,3.79,2.32,6.48,2.25
			c3.53-0.07,4.74-1.67,4.83-4.69c0.1-3.92,0.03-7.84,0.03-11.76c0-3.79-0.02-7.57,0.02-11.36c0.02-3.68,1.99-5.27,5.59-5.1
			c3.4,0.17,5.25,1.99,5.28,5.32c0.1,7.28,0.03,14.57,0.03,21.85c0.02,5.27,3.01,7.72,7.76,5.33c5.99-2.99,12.84-5,17.11-10.63
			c3.5-4.64,6.76-9.51,7.91-15.43c0.52-2.64,2.36-4.78,2.56-7.71c0.12-1.77,2.91-0.93,4.44-0.84c2.15,0.13,3.65,1.63,3.82,3.77
			c0.59,7.39-0.45,13.96-5.33,20.42c-5.65,7.47-12.7,12.45-20.74,16.44c-2.96,1.46-6.34,2.47-9.64,2.84
			c-6.29,0.67-7.87,2.04-7.87,8.38c0,3.36-0.03,6.73,0.02,10.08c0.08,4.78,2.54,6.39,6.71,4.48c0.87-0.39,1.8-0.91,2.71-0.94
			c11.27-0.52,21.1-5.3,30.45-10.94c6.75-4.07,13.04-9.02,17.7-15.6c4.21-5.92,7.79-12.47,9.64-19.28
			c1.21-4.44,3.77-9.02,2.71-14.08c-0.57-2.76,0.77-3.58,3.48-3.5c8.98,0.27,7.2-1.06,7.42,7.22c0,0.13-0.02,0.29,0,0.42
			c1.19,10.43-3.38,19.01-8.31,27.71c-4.61,8.11-11.09,14.44-18.25,19.85c-5.96,4.51-12.84,7.82-19.99,10.67
			c-5.01,1.99-10.2,3.92-15.26,5.55c-3.8,1.21-7.76,3.28-12.23,2.94c-4.74-0.37-6.78,1.95-6.8,6.58c0,4.07,0.08,8.13-0.02,12.2
			c-0.05,2.07,0.57,2.99,2.84,2.98c3.77,0,7.4-0.3,11.09-1.38c4.66-1.35,9.59-1.8,14.28-3.1c4.96-1.38,10.08-2.62,14.7-4.66
			c6.83-3.03,13.71-6.07,20.04-10.3c8.8-5.87,17.13-12.4,23.77-20.49c3.8-4.64,6.91-10.13,9.77-15.71
			c3.55-6.91,5.87-14.2,7.71-21.43c1.3-5.08,4.09-10.28,2.86-16c-0.74-3.45,1.82-3.15,3.9-2.96c2,0.17,4.09-1.09,5.03,2.88
			C1123.8,385.13,1122.3,391.95,1121.54,398.64z"/>
		<path class="st0" d="M1235.34,364.31c0.39,2.42-1.67,2.09-3.15,2.09c-13.43,0.02-26.83-0.03-40.26,0.03
			c-13.31,0.07-26.43,3.26-39.84,2.34c-3.18-0.22-5.55-1.7-7.89-3.01c-3.26-1.83-3.08-4.51,0.05-6.86c2.62-1.99,5.47-3.5,9.09-3.45
			c11.59,0.17,23.2,0.07,34.81,0.07c10.21,0,20.42,0.22,30.62-0.1c5.23-0.15,10.15,1.04,15.01,2.42
			C1237.14,358.79,1234.99,362.1,1235.34,364.31z"/>
	</g>
	<g>
		<path d="M922.76,828.86c0-1.29,0.34-2.31,1.03-3.08c0.69-0.77,1.66-1.15,2.92-1.15h89.33c1.32,0,2.34,0.4,3.06,1.19
			c0.72,0.8,1.08,1.86,1.08,3.21v22.75c0,1.04-0.36,2.04-1.08,2.98c-0.72,0.95-1.77,1.42-3.15,1.42H957.6v22.83h45.02
			c1.14,0,2.08,0.28,2.84,0.83c0.75,0.55,1.12,1.47,1.12,2.76v19.88c0,0.86-0.33,1.69-0.99,2.48c-0.66,0.8-1.62,1.2-2.88,1.2H957.6
			v23.56h60.51c2.7,0,4.05,1.41,4.05,4.22v23.13c0,0.61-0.24,1.16-0.72,1.65c-0.24,1.71-1.47,2.57-3.69,2.57h-91.04
			c-1.2,0-2.16-0.32-2.87-0.97c-0.72-0.65-1.08-1.64-1.08-2.99V828.86z"/>
		<path d="M1031.24,958.9c0.48-0.92,0.98-1.85,1.49-2.81c0.51-0.95,1.1-1.92,1.76-2.9l40.52-61.84
			c-6.9-10.61-13.73-21.1-20.49-31.47c-6.75-10.37-13.58-20.86-20.49-31.47c-0.36-0.49-0.65-0.95-0.85-1.38
			c-0.21-0.43-0.35-0.89-0.4-1.38c0.12-0.49,0.47-0.72,1.03-0.69c0.57,0.03,1.16-0.11,1.76-0.42h31.33c2.22,0,3.96,1.17,5.22,3.5
			l22.06,33.87l22.33-33.87c1.26-2.33,3-3.5,5.22-3.5h28.27c0.48,0,1.05,0,1.71,0c0.66,0,1.28,0.02,1.84,0.05
			c0.57,0.03,1.07,0.13,1.49,0.32c0.42,0.19,0.63,0.46,0.63,0.83c0,0.74-0.33,1.54-0.99,2.39l-41.42,63.23l42.23,64.42
			c0.6,0.86,1.06,1.64,1.39,2.35c0.33,0.7,0.47,1.3,0.4,1.79c0,0.92-0.54,1.38-1.62,1.38h-32.24c-1.02,0-1.95-0.31-2.79-0.92
			c-0.84-0.61-1.51-1.44-1.98-2.48l-24.49-37.09l-24.22,37.09c-0.48,1.04-1.14,1.87-1.98,2.48c-0.84,0.61-1.77,0.92-2.79,0.92h-30.7
			h-1.62c-0.48,0-0.9-0.14-1.26-0.42c-0.37-0.28-0.54-0.66-0.54-1.15C1031.06,959.42,1031.13,959.15,1031.24,958.9z"/>
		<path d="M1161.44,893.09c0-6.5,0.81-12.75,2.43-18.73c1.62-5.98,3.93-11.59,6.94-16.84c3-5.25,6.59-10.02,10.76-14.31
			c4.18-4.29,8.82-7.96,13.92-11c5.1-3.03,10.58-5.4,16.44-7.08c5.86-1.69,11.97-2.53,18.33-2.53c6.31,0,12.4,0.85,18.29,2.53
			c5.89,1.69,11.38,4.05,16.49,7.08c5.11,3.04,9.76,6.71,13.97,11c4.2,4.3,7.79,9.07,10.76,14.31c2.98,5.25,5.29,10.86,6.94,16.84
			c1.65,5.98,2.48,12.23,2.48,18.73c0,6.5-0.83,12.75-2.48,18.73c-1.65,5.98-3.96,11.57-6.94,16.74
			c-2.97,5.19-6.56,9.91-10.76,14.18c-4.21,4.26-8.86,7.93-13.97,11c-5.11,3.07-10.6,5.43-16.49,7.08
			c-5.89,1.66-11.98,2.48-18.29,2.48c-6.36,0-12.48-0.83-18.33-2.48c-5.86-1.66-11.34-4.02-16.44-7.08
			c-5.11-3.07-9.75-6.73-13.92-11c-4.17-4.26-7.76-8.99-10.76-14.18c-3.01-5.18-5.32-10.76-6.94-16.74
			C1162.25,905.85,1161.44,899.6,1161.44,893.09z M1196.28,893.01c0,5.09,0.84,9.85,2.52,14.27c1.68,4.41,4.03,8.27,7.06,11.55
			c3.03,3.28,6.61,5.86,10.75,7.73c4.13,1.87,8.69,2.81,13.67,2.81c4.98,0,9.54-0.94,13.71-2.81s7.76-4.45,10.79-7.73
			c3.03-3.28,5.38-7.13,7.06-11.55c1.68-4.42,2.52-9.17,2.52-14.27c0-5.03-0.84-9.77-2.52-14.22c-1.68-4.45-4.03-8.33-7.06-11.64
			s-6.62-5.92-10.79-7.82c-4.17-1.9-8.73-2.85-13.71-2.85c-4.98,0-9.53,0.95-13.67,2.85c-4.13,1.9-7.72,4.5-10.75,7.82
			s-5.38,7.2-7.06,11.64C1197.12,883.24,1196.28,887.98,1196.28,893.01z"/>
		<path d="M1436.95,893.09c0,6.5-0.81,12.69-2.43,18.55c-1.62,5.86-3.93,11.32-6.94,16.38c-3,5.06-6.59,9.65-10.76,13.76
			c-4.17,4.11-8.8,7.61-13.87,10.49c-5.07,2.89-10.55,5.11-16.43,6.67c-5.88,1.57-11.98,2.35-18.28,2.35h-44.39
			c-1.08,0-2.04-0.25-2.88-0.74c-0.84-0.49-1.26-1.53-1.26-3.13V828.86c0-1.29,0.35-2.33,1.04-3.13c0.69-0.79,1.72-1.2,3.11-1.2
			h44.39c6.3,0,12.38,0.8,18.23,2.39c5.85,1.6,11.31,3.86,16.38,6.81c5.07,2.94,9.71,6.47,13.91,10.58
			c4.2,4.11,7.79,8.71,10.76,13.81c2.97,5.09,5.29,10.58,6.94,16.47C1436.13,880.49,1436.95,886.66,1436.95,893.09z M1354.57,857.57
			v70.77h7.56c1.38,0,2.73-0.05,4.05-0.14c1.32-0.09,2.64-0.2,3.97-0.32c4.5-0.37,8.7-1.49,12.6-3.36c3.9-1.87,7.31-4.33,10.22-7.36
			c2.91-3.04,5.19-6.61,6.84-10.72c1.65-4.11,2.48-8.59,2.48-13.44c0-5.15-0.94-9.89-2.84-14.22c-1.89-4.33-4.45-8.07-7.7-11.23
			c-3.24-3.16-7.04-5.62-11.39-7.36c-4.35-1.75-8.99-2.62-13.91-2.62H1354.57z"/>
		<path d="M1454.24,893.09c0-6.5,0.81-12.75,2.43-18.73c1.62-5.98,3.93-11.59,6.94-16.84c3-5.25,6.59-10.02,10.76-14.31
			c4.18-4.29,8.82-7.96,13.92-11c5.1-3.03,10.58-5.4,16.44-7.08c5.86-1.69,11.97-2.53,18.33-2.53c6.31,0,12.4,0.85,18.29,2.53
			c5.89,1.69,11.38,4.05,16.49,7.08c5.11,3.04,9.76,6.71,13.97,11c4.2,4.3,7.79,9.07,10.76,14.31c2.98,5.25,5.29,10.86,6.94,16.84
			c1.65,5.98,2.48,12.23,2.48,18.73c0,6.5-0.83,12.75-2.48,18.73c-1.65,5.98-3.96,11.57-6.94,16.74
			c-2.97,5.19-6.56,9.91-10.76,14.18c-4.21,4.26-8.86,7.93-13.97,11c-5.11,3.07-10.6,5.43-16.49,7.08
			c-5.89,1.66-11.98,2.48-18.29,2.48c-6.36,0-12.48-0.83-18.33-2.48c-5.86-1.66-11.34-4.02-16.44-7.08
			c-5.11-3.07-9.75-6.73-13.92-11c-4.17-4.26-7.76-8.99-10.76-14.18c-3.01-5.18-5.32-10.76-6.94-16.74
			C1455.05,905.85,1454.24,899.6,1454.24,893.09z M1489.08,893.01c0,5.09,0.84,9.85,2.52,14.27c1.68,4.41,4.03,8.27,7.06,11.55
			c3.03,3.28,6.61,5.86,10.75,7.73s8.69,2.81,13.67,2.81s9.54-0.94,13.71-2.81s7.76-4.45,10.79-7.73c3.03-3.28,5.38-7.13,7.06-11.55
			c1.68-4.42,2.52-9.17,2.52-14.27c0-5.03-0.84-9.77-2.52-14.22c-1.68-4.45-4.03-8.33-7.06-11.64s-6.62-5.92-10.79-7.82
			c-4.17-1.9-8.73-2.85-13.71-2.85s-9.53,0.95-13.67,2.85c-4.13,1.9-7.72,4.5-10.75,7.82s-5.38,7.2-7.06,11.64
			C1489.92,883.24,1489.08,887.98,1489.08,893.01z"/>
	</g>
	<g>
		<path d="M856.77,1011.08c1.02,0.62,1.77,1.42,2.25,2.39c0.48,0.98,0.39,2.15-0.27,3.5l-15.22,22.09
			c-0.66,1.04-1.37,1.64-2.12,1.79c-0.75,0.16-1.67-0.1-2.75-0.78c-2.94-2.27-6.18-4.02-9.72-5.25c-3.54-1.22-7.3-1.84-11.26-1.84
			c-4.92,0-9.45,0.95-13.59,2.85c-4.15,1.9-7.71,4.5-10.72,7.82c-3,3.31-5.34,7.18-7.02,11.6c-1.68,4.42-2.52,9.14-2.52,14.17
			c0,5.03,0.84,9.74,2.52,14.13c1.68,4.39,4.02,8.22,7.02,11.5c3.01,3.28,6.57,5.88,10.72,7.77c4.14,1.9,8.67,2.85,13.59,2.85
			c3.96,0,7.75-0.63,11.35-1.89c3.6-1.26,6.87-3.02,9.81-5.29c1.08-0.67,1.98-0.95,2.7-0.83s1.44,0.67,2.16,1.65l15.4,22.64
			c0.66,1.35,0.75,2.48,0.27,3.4c-0.48,0.92-1.23,1.69-2.25,2.3c-5.65,3.86-11.72,6.85-18.23,8.97c-6.52,2.12-13.37,3.17-20.58,3.17
			c-6.36,0-12.47-0.83-18.32-2.48c-5.85-1.66-11.33-4.02-16.43-7.08c-5.1-3.07-9.74-6.73-13.91-11c-4.17-4.26-7.76-8.99-10.76-14.18
			c-3-5.18-5.31-10.76-6.93-16.74c-1.62-5.98-2.43-12.23-2.43-18.73c0-6.5,0.81-12.74,2.43-18.73c1.62-5.98,3.93-11.59,6.93-16.84
			c3-5.25,6.59-10.02,10.76-14.31c4.17-4.29,8.81-7.96,13.91-11c5.1-3.03,10.58-5.4,16.43-7.08c5.85-1.69,11.96-2.53,18.32-2.53
			c7.21,0,14,1.03,20.4,3.08S851.12,1007.21,856.77,1011.08z"/>
		<path d="M919.88,1004.73c0.06-0.37,0.25-0.77,0.58-1.2c0.33-0.43,0.74-0.83,1.22-1.2c0.48-0.37,0.99-0.66,1.53-0.88
			c0.54-0.21,1.05-0.32,1.53-0.32h23.05c1.02,0,1.89,0.32,2.61,0.97c0.72,0.64,1.26,1.21,1.62,1.7l2.25,5.25l47.27,124.61
			c0.48,1.22,0.39,2.22-0.27,2.99c-0.66,0.77-1.8,1.15-3.42,1.15h-25.84c-1.38,0-2.44-0.26-3.2-0.78c-0.75-0.52-1.34-1.4-1.75-2.62
			c-1.2-3.13-2.38-6.25-3.52-9.34c-1.14-3.1-2.28-6.21-3.42-9.34h-47.81c-1.14,3.13-2.3,6.24-3.47,9.34
			c-1.17,3.09-2.33,6.21-3.47,9.34c-0.78,2.27-2.31,3.4-4.59,3.4h-26.56c-1.14,0-2.08-0.31-2.84-0.92c-0.75-0.61-0.88-1.53-0.4-2.76
			L919.88,1004.73z M936.27,1044.11c-1.14,3.13-2.29,6.5-3.47,10.12c-1.17,3.62-2.33,7.27-3.47,10.95
			c-1.14,3.68-2.3,7.32-3.47,10.91c-1.17,3.59-2.33,6.95-3.47,10.08h27.64L936.27,1044.11z"/>
		<path d="M1016.31,1005.09c0-1.1,0.36-2.06,1.08-2.85c0.72-0.79,1.71-1.2,2.97-1.2h26.65c1.02,0,1.95,0.37,2.79,1.11
			c0.84,0.74,1.29,1.72,1.35,2.94v100.13h49.52c1.08,0,2.01,0.37,2.79,1.11s1.17,1.75,1.17,3.03v24.2c0,1.04-0.34,1.99-1.03,2.85
			c-0.69,0.86-1.66,1.32-2.93,1.38h-80.4c-2.64,0-3.96-1.35-3.96-4.05V1005.09z"/>
		<path d="M1159.73,1004.73c0.06-0.37,0.25-0.77,0.58-1.2c0.33-0.43,0.74-0.83,1.22-1.2c0.48-0.37,0.99-0.66,1.53-0.88
			c0.54-0.21,1.05-0.32,1.53-0.32h23.05c1.02,0,1.89,0.32,2.61,0.97c0.72,0.64,1.26,1.21,1.62,1.7l2.25,5.25l47.27,124.61
			c0.48,1.22,0.39,2.22-0.27,2.99c-0.66,0.77-1.8,1.15-3.42,1.15h-25.84c-1.38,0-2.44-0.26-3.2-0.78c-0.75-0.52-1.34-1.4-1.75-2.62
			c-1.2-3.13-2.38-6.25-3.52-9.34c-1.14-3.1-2.28-6.21-3.42-9.34h-47.81c-1.14,3.13-2.3,6.24-3.47,9.34
			c-1.17,3.09-2.33,6.21-3.47,9.34c-0.78,2.27-2.31,3.4-4.59,3.4h-26.56c-1.14,0-2.08-0.31-2.84-0.92c-0.75-0.61-0.88-1.53-0.4-2.76
			L1159.73,1004.73z M1176.12,1044.11c-1.14,3.13-2.29,6.5-3.47,10.12c-1.17,3.62-2.33,7.27-3.47,10.95
			c-1.14,3.68-2.3,7.32-3.47,10.91c-1.17,3.59-2.33,6.95-3.47,10.08h27.64L1176.12,1044.11z"/>
		<path d="M1270.2,1093.63c1.02,0.86,2.33,2.01,3.92,3.45c1.59,1.44,3.41,2.87,5.45,4.28c3.06,2.08,6.09,3.71,9.09,4.88
			c3,1.17,6.15,1.75,9.45,1.75c3.06,0,5.63-0.35,7.7-1.06c2.07-0.7,3.7-1.64,4.9-2.8c1.2-1.16,2.06-2.51,2.57-4.04
			c0.51-1.53,0.76-3.16,0.76-4.88c0-1.9-0.7-3.6-2.11-5.1c-1.41-1.51-3.14-2.84-5.18-4c-2.04-1.17-4.17-2.16-6.39-2.99
			c-2.22-0.83-4.14-1.52-5.76-2.07c-7.2-2.57-13.5-5.35-18.91-8.32c-5.4-2.98-9.9-6.29-13.5-9.93c-3.61-3.65-6.3-7.66-8.11-12.05
			c-1.8-4.38-2.7-9.27-2.7-14.67c0-5.7,1.12-10.88,3.38-15.54c2.25-4.66,5.46-8.64,9.63-11.95c4.17-3.31,9.2-5.86,15.08-7.67
			c5.88-1.81,12.46-2.72,19.72-2.72c5.46,0,10.69,0.63,15.71,1.89c5.01,1.26,9.95,3.27,14.81,6.03c2.04,1.23,3.97,2.51,5.8,3.82
			c1.83,1.32,3.44,2.6,4.82,3.82c1.38,1.23,2.48,2.39,3.29,3.5s1.21,2.06,1.21,2.85s-0.19,1.53-0.58,2.21
			c-0.39,0.67-0.98,1.44-1.75,2.3l-13.78,15c-1.02,1.04-2.04,1.57-3.06,1.57c-0.84,0-1.61-0.25-2.3-0.74
			c-0.69-0.49-1.45-1.11-2.29-1.84l-0.81-0.74c-1.2-1.04-2.53-2.12-4.01-3.22c-1.47-1.11-3.04-2.1-4.72-2.99
			c-1.69-0.89-3.45-1.62-5.31-2.21c-1.86-0.58-3.75-0.88-5.67-0.88c-1.98,0-3.84,0.17-5.58,0.51s-3.27,0.88-4.59,1.61
			c-1.32,0.74-2.38,1.7-3.15,2.9c-0.78,1.2-1.17,2.66-1.17,4.37c0,1.72,0.42,3.21,1.26,4.47c0.84,1.26,2.1,2.43,3.78,3.5
			c1.68,1.07,3.76,2.08,6.26,3.03c2.49,0.95,5.39,1.98,8.69,3.08c6.36,2.15,12.23,4.4,17.6,6.76c5.37,2.36,10,5.16,13.91,8.38
			c3.9,3.22,6.95,7.07,9.14,11.55c2.19,4.48,3.29,9.91,3.29,16.29c0,6.75-1.35,12.87-4.05,18.36c-2.7,5.49-6.41,10.17-11.12,14.04
			c-4.71,3.86-10.25,6.85-16.61,8.97c-6.36,2.12-13.21,3.17-20.53,3.17c-6.9,0-13.68-1.26-20.34-3.78
			c-6.67-2.52-12.88-5.91-18.64-10.16c-2.4-1.79-4.43-3.54-6.08-5.26c-1.65-1.72-2.95-3.11-3.92-4.15l-0.27-0.28
			c-0.06-0.12-0.12-0.2-0.18-0.23c-0.06-0.03-0.12-0.08-0.18-0.14c-0.06-0.12-0.12-0.2-0.18-0.23c-0.06-0.03-0.12-0.08-0.18-0.14
			c-1.38-1.54-2.07-2.77-2.07-3.69c0-1.04,0.69-2.21,2.07-3.51l15.58-15.19c1.26-0.92,2.28-1.38,3.06-1.38
			c0.54,0,1.11,0.19,1.71,0.56C1268.64,1092.34,1269.36,1092.89,1270.2,1093.63z"/>
		<path d="M1409.76,1004.73c0.06-0.37,0.25-0.77,0.58-1.2c0.33-0.43,0.74-0.83,1.22-1.2c0.48-0.37,0.99-0.66,1.53-0.88
			c0.54-0.21,1.05-0.32,1.53-0.32h23.05c1.02,0,1.89,0.32,2.61,0.97c0.72,0.64,1.26,1.21,1.62,1.7l2.25,5.25l47.27,124.61
			c0.48,1.22,0.39,2.22-0.27,2.99c-0.66,0.77-1.8,1.15-3.42,1.15h-25.84c-1.38,0-2.44-0.26-3.2-0.78c-0.75-0.52-1.34-1.4-1.75-2.62
			c-1.2-3.13-2.38-6.25-3.52-9.34c-1.14-3.1-2.28-6.21-3.42-9.34h-47.81c-1.14,3.13-2.3,6.24-3.47,9.34
			c-1.17,3.09-2.33,6.21-3.47,9.34c-0.78,2.27-2.31,3.4-4.59,3.4h-26.56c-1.14,0-2.08-0.31-2.84-0.92c-0.75-0.61-0.88-1.53-0.4-2.76
			L1409.76,1004.73z M1426.14,1044.11c-1.14,3.13-2.29,6.5-3.47,10.12c-1.17,3.62-2.33,7.27-3.47,10.95
			c-1.14,3.68-2.3,7.32-3.47,10.91c-1.17,3.59-2.33,6.95-3.47,10.08h27.64L1426.14,1044.11z"/>
		<path d="M1509.7,1005.19c0-1.11,0.33-2.06,0.99-2.85c0.66-0.8,1.65-1.2,2.97-1.2h29.44c0.84,0,1.71,0.21,2.61,0.64
			c0.9,0.43,1.68,1.17,2.34,2.21c7.62,12.58,15.19,24.97,22.69,37.18c7.5,12.21,15.09,24.6,22.78,37.18v-73.72
			c0.24-1.1,0.72-1.96,1.44-2.57c0.72-0.61,1.56-0.92,2.52-0.92h25.66c1.26,0,2.31,0.35,3.15,1.06c0.84,0.71,1.26,1.7,1.26,2.99
			v129.02c0,1.23-0.36,2.13-1.08,2.71c-0.72,0.58-1.71,0.88-2.97,0.88h-28.72c-0.78,0-1.47-0.28-2.07-0.83
			c-0.6-0.56-1.23-1.29-1.89-2.21c-7.98-13.49-15.87-26.84-23.68-40.03c-7.81-13.19-15.73-26.53-23.77-40.03v79.05
			c0,1.35-0.3,2.36-0.9,3.04c-0.6,0.67-1.68,1.01-3.24,1.01h-25.57c-1.38,0-2.39-0.38-3.02-1.15c-0.63-0.76-0.94-1.7-0.94-2.81
			V1005.19z"/>
		<path d="M1652.13,1005.18c0-1.22,0.38-2.2,1.13-2.94c0.75-0.74,1.78-1.1,3.11-1.1h104.53c1.13,0,2.11,0.34,2.92,1.01
			c0.81,0.67,1.22,1.69,1.22,3.04v18.59c0,0.49-0.02,0.95-0.04,1.38c-0.03,0.43-0.2,0.98-0.49,1.66l-65.19,79.42h61.85
			c1.13,0,2.1,0.34,2.88,1.02c0.78,0.67,1.17,1.71,1.17,3.13v22.91c0,1.04-0.38,2.06-1.12,3.04c-0.75,0.98-1.73,1.47-2.93,1.47
			h-104.53c-1.2,0-2.21-0.4-3.02-1.2c-0.81-0.8-1.22-1.9-1.22-3.32v-19.8c0-0.98,0.21-1.78,0.63-2.39l65.01-78.39h-61.68
			c-1.33,0-2.36-0.35-3.11-1.05c-0.75-0.71-1.13-1.85-1.13-3.44V1005.18z"/>
	</g>
</g>
</svg>
